<?xml version="1.0" encoding="UTF-8"?>
<svg width="250" height="250" version="1.1" viewBox="0 0 250 250" xmlns="http://www.w3.org/2000/svg" xmlns:cc="http://creativecommons.org/ns#" xmlns:dc="http://purl.org/dc/elements/1.1/" xmlns:rdf="http://www.w3.org/1999/02/22-rdf-syntax-ns#">
 <metadata>
  <rdf:RDF>
   <cc:Work rdf:about="">
    <dc:format>image/svg+xml</dc:format>
    <dc:type rdf:resource="http://purl.org/dc/dcmitype/StillImage"/>
    <dc:title/>
   </cc:Work>
  </rdf:RDF>
 </metadata>
 <defs>
  <clipPath id="clipPath230">
   <rect x="62.041" y="52.245" width="449.31" height="438.08" fill="#f00"/>
  </clipPath>
 </defs>
 <path transform="matrix(.59297 0 0 .62141 -58.216 -59.694)" d="m432 1123c19.396-39.343-16.246 20.214-3.6834-14.18 24.475-18.963-6.0238 33.318 24.003 5.5561 21.719-9.2659 62.211-24.969 55.672-45.096-18.9-15.106-28.962 18.623-53.689 6.4536-19.007 6.2577 34.183 5.4659 1.5732 9.4603-29.489 6.1178-59.529 0.8754-89.855 4.4658-26.664 5.1944-45.656 1.5857-44.333-11.867-34.942-6.2696 15.333-3.0013 20.979 6.1992 20.96 0.2704 23.957-3.9966 38.995-1.1492 18.675-6.0285 22.872 3.9365 38.815-5.9557-3.5529 6.2082 13.566 6.1934 24.971-1.743 7.2763-4.1032-9.9555-0.5499 12.16-7.3034-2.3334-15.344 15.049 10.738 24.342-10.279 10.3-11.057 39.399-48.822 8.633-15.578-30.05 14.097-10.672-15.973-1.9312-11.075 16.504-0.9119 40.614-18.293 55.221-37.012-2.6201-13.312 7.622 21.469-3.7871 6.6863-7.3427 14.906-21.399 20.608-33.55 35.973-0.95121 18.581 6.2688 16.048 9.3122 29.828-2.4356 8.3542 12.634 5.1471-7.5638 22.242-23.546 12.483-50.564 31.24-76.284 34.375zm-57.317-38.64c-1.6124-4.8749-3.2885 4.7496 0 0zm18-2.1427c-7.3506-2.3161-5.0221 4.3139 0 0zm-6.6666-0.524c-3.4068-4.7831-3.4063 4.7833 0 0zm51.333-1.3333c-1.6126-4.8747-3.2883 4.7496 0 0zm8.6667-2.0787c-4.0909-4.7268-0.78585 6.5708 0 0zm63.518-10.588c3.241-18.215-3.7998 8.721 0 0zm-4.1845-18c-11.23-10.114 5.0007 9.7302 0 0zm-8.6667 0.7454c-3.1118-4.5798-3.84 2.5409 0 0zm2.1389-5.7176c-6.5173-0.037 3.6363 6.9101 0 0zm4.5278-5.1389c-4.0138-9.8268-3.9936 11.389 0 0zm-16.361-4.0278c-4.9089-1.5122-2.4493 2.3223 0 0zm-43.996 67.472c-4.2409-9.638 8.1756 9.7577 0 0zm27.024-1.2547c2.3366-7.0125 2.0728 4.8997 0 0zm-10.837-7.7453c-4.4602-6.3657 8.113 7.856 0 0zm12.069-5.3334c-11.584-13.284 13.041 13.204 0 0zm8.2996-3.0164c-6.9495-13.729 10.952 12.65 0 0zm2.0032-3.7605c8.9143-23.417 17.442-4.0406 0 0zm4.7847-2.0254c1.0877-3.8697-7.1539 3.6335 0 0zm-87.644 0.4843c3.3742-2.4384 5.3084 4.295 0 0zm12.657-0.9972c7.138-8.2327 9.2381-2.2078 0 0zm-73-5.3091c-5.2502-6.4196 10.005 0.2878 0 0zm169.68-0.3604c3.3745-2.4383 5.3083 4.2952 0 0zm-80.676-1.1912c2.2001-6.2251 4.6276 2.2985 0 0zm72.752-2.4332c-1.6682-5.8357 4.6301 6.2334 0 0zm-111.4-1.3909c3.8987-9.7497 1.0298 6.9836 0 0zm11.37-0.2412c0.48688-6.5669 4.2501 4.4359 0 0zm133.6-7.9211c-3.2683-15.955 20.255 8.14 0 0zm-109.44 0.2734c11.549-6.7898 22.313-0.1391 0 0zm155.27-3.242c-0.10446-27.953 10.654 6.6938 0 0zm5.1791 0.1829c10.016-41.528 12.092 8.7997 0 0zm-107.33-1.3853c1.6126-4.8747 3.2883 4.7496 0 0zm69.766-1.7678c-0.52773-8.7756 2.6209 7.9403 0 0zm-21.522 0.9011c2.4924-9.9272 14.662-10.2 0 0zm73.756-0.528c7.4867-14.796 32.34-9.6627 7-1.987zm-82.455-3.0179c0.95632-5.7726 9.1992 3.4583 0 0zm3.245-5.7466c4.8594-10.13 19.471-12.88 0-3e-4zm11.817-3.2705c5.5779-9.9944 8.0576-13.215 4.9582 1.0069zm94.583-2.9036c20.116-33.021 5.9704 4.3655 0 0zm-82.523-1c3.2882-4.7499 1.6128 4.8749 0 0zm21.333 0.4481c-33.301-15.964 34.599-36.281 49.623-43.936 9.6262-23.022 6.7729-2.6744 17.49-27.167 20.658 16.412 40.236 19.552 40.023 53.47-4.0187 25.497-14.687-51.48-30.022-7.56-19.876 24.452-51.433 27.545-17.781-0.865-19.374 9.4308-34.762 32.668-59.333 26.058zm54-9.7028c-3.6496-7.5077-4.7872 4.3606 0 0zm2.6667-2.7453c-3.4063-4.7833-3.4068 4.7831 0 0zm3.3333-2.6667c-1.6126-4.8747-3.2883 4.7496 0 0zm-171.33 8.3615c19.609-10.776 8.5023 2.1979 0 0zm76-3.0282c-3.2693-9.4636 6.3393 9.5683 0 0zm9.3333 1.476c5.1358-7.0019 2.8154 3.121 0 0zm102.18-10.143c6.0527-7.4235-1.9177 7.1971 0 0zm-94.946-1.8052c4.2756-7.2996 11.394 0.8116 0 0zm30.54-16.599c13.256-6.8977 11.379 4.7676 0 0zm-49.158-1.005c-0.48301-17.104 19.973 1.981 0 0zm60.714-0.4482c5.6205-4.4016 3.3528 2.359 0 0zm8.6667-2.1426c8.9992-4.9973 3.6246 3.6053 0 0zm-13.149-2c4.6459-7.231 0.83734 7.3456 0 0zm-31.978-1.7717c-7.1599-27.152 26.759-27.472 19.03-11.657-7.467-29.991-17.248 13.497-19.03 11.657zm96.29-14.562c-4.1189-6.0025 7.4416 7.0974 0 0zm9.5034-0.412c3.84-2.5409 3.1118 4.5798 0 0zm-74.667-2.4306c2.2001-6.2251 4.6276 2.2985 0 0zm23.111-6.0987c3.4655-4.774 2.0298 6.319 0 0zm52.134-3.0587c-8.963-13.589 14.229 16.602 0 0zm-89.912 0.042c0.7021-8.0851 6.198-7.8069 0 0zm93.566-2.1279c-22.439-25.172-15.186-18.405 3.6942-2.9407 7.5695 3.5177-2.7721 9.5902-3.6942 2.9407zm-56.399 0.41927c-4.4202-14.197-6.1462-14.305-1.4164-25.445 8.8203 1.3307 11.047-16.924 9.4942 4.1115 18.774-20.21-10.129 14.846-8.0778 21.333zm-25.148-4.5524c-6.757-4.0628 5.9052-16.765-2.1883-24.189-0.26525-24.759-3.2454-43.4-37.758-46.346-16.468-17.297-23.034-30.065-17.719-26.466-5.1368-23.061 19.238 17.108 11.559-2.5194-22.357-25.806 40.084 46.722 29.108 21.232 26.428 16.99 19.47 11.827 27.326 32.617-20.303-17.084 12.027 27.808 10.897 12.71-4.0266 26.044-13.867 43.931-5.5878 7.2727-16.263-4.487-7.1589 22.585-15.636 25.689zm6.6272-30.448c-1.5706-6.891-1.8268 9.2567 0 0zm-3.2208-6.4824c-5.2885-13.575-5.2306 5.8309 0 0zm4.317-4.5529c-3.7734 2.5776-1.5836 5.7995 0 0zm-8.165-15.548c-2.4675-2.716 1.3385 7.804 0 0zm-5.3235-3.0198c-9.5218-7.7612 6.0476 9.1162 0 0zm-42.254-26.063c-3.2885-4.7497-1.6124 4.875 0 0zm41.432 84.785c-3.2925-12.096 6.2924 8.5278 0 0zm23.84-0.89957c-2.2588-13.12 7.3778 10.418 0 0zm13.394-1.7602c4.0577-6.1999 12.481-0.37197 0 0zm10.079-2.4589c9.0579-23.549 1.5996 7.105 0 0zm-32.746-4.7778c4.948-4.0161 3.3373 4.1388 0 0zm64.011-0.18712c-16.751-10.464-16.754-24.341-24.589-37.311 7.7086-1.3281 30.796 17.225 19.895 27.143 2.4342-2.2609 14.948 15.685 4.6932 10.168zm-14.678-18.702c-3.2883-4.7497-1.6126 4.8748 0 0zm18.667 12.157c2.2002-6.2249 4.6274 2.2985 0 0zm-24.937-5.8267c-4.7552-21.396 7.1039 17.288 0 0zm-58.063-4.1868c-8.0551-14.686 8.644 4.3951 0 0zm106.3-3.5161c-34.165-25.082 10.603-6.9178 0 0zm-5.4209-10.029c-14.66-10.803 8.7346 16.607 0 0zm-19.211 4.1809c-23.847-13.832 2.96-2.0634 10.464 3.9949l-0.57281 0.16758zm-30.852-0.8018c-10.228-8.3995 12.975 7.7153 0 0zm-71.915-3.6451c-11.584-13.284 13.041 13.204 0 0zm45.268 3.2667c-8.6004-8.7919 6.5118-5.7732 0 0zm61.919-5.7648c-24.914-14.848-9.3244-14.138 1.8778-4.2789 0.81619 2.9901 7.0831 9.329-1.8778 4.2789zm38.248 1.1071c-8.5711-8.0118-33.992-16.328-22.808-27.196-12.656-16.067-25.999-29.217-28.674-19.196 40.326 26.061-36.801 5.7155-14.697-6.0373 24.327 3.3539 19.109-3.7178 9.8333-11.847 13.775 4.1216-35.064-35.021-44.528-48.363-45.549-39.075-12.555 25.987 12.655 38.073 38.193 35.655-18.134 12.24-21.26 15.474-19.128-13.445-7.4413-10.796 4.7431-15.868-14.505 12.853-34.889-35.461-45.138-52.077-13.479-23.895-23.272-21.21-27.23-25.4 4.6256 23.238 27.914 66.125 21.444 52.666-43.046-27.384 37.696 51.085 19.294 23.495 13.707 12.567 17.045 10.166 19.949 22.714 13.812 1.0669-2.8736-12.475 15.395 5.7912 22.706 34.123-10.782 29.435-24.869-6.7919-11.349-7.3968-51.744-15.443-44.381-31.211-4.1359-18.47-30.732-33.62-56.763-56.325-17.478 0.70982-33.427-43.932-14.637-29.309-5.3794-14.236-21.662-37.969-6.623-6.7752-12.578-14.669-24.035-15.066-36.452-31.727-11.309-12.66 3.2502-16.301-16.526-30.658-3.4682 50.82-32.403-32.167-38.321-49.685-1.1457-13.977 0.85081-30.795 11.374-10.69-6.7536-22.596-23.917-39.284-14.275-5.6569 12.086 18.312-15.459 35.14-15.541 13.051-1.2113-11.003-7.3262-44.879-15.364-30.79-0.60158 18.613 6.3874 23.547 10.347 47.152-6.6098-23.547-7.8756-11.189-14.802-9.0885-6.8753 29.294-9.7531-27.468-5.9573-41.688-7.0071-19.646-8.9351-51.486-12.882-12.102-7.7025 11.425 8.2765 49.228-13.037 20.989-6.0035-13.743 3.7586-23.251-10.12-31.144-9.5883 20.187 3.9389-47.091 0.91794-19.655 8.634 7.2369 13.834-1.5102 11.881-18.503-10.427-9.2828 4.3847-30.305 3.6413-29.552 2.0274 19.162 19.283-13.42 1.1362-27.214-4.5793 14.151-10.078-10.944-15.059-17.403-11.486 16.754-16.93 23.412-8.1647 20.252-3.5777 15.347 11.34 67.825 0.223 55.983-14.27 4.4166 3.7648 32.845-10.811 43.983 2.9717 7.3045-0.49447 24.038-0.5699 35.386-7.0406-25.643-6.4671-10.1-4.9869 0.96133-8.2391-11.931-7.4993-42.945-8.2298-6.3032-12.181 1.3001-9.2963 7.6455-3.0138 24.334-10.039-12.887-13.285-54.112-9.7821-12.704-3.4719 20.112-2.3106-10.896-14.941-24.262-3.9279-18.962 0.0496 39.884-7.6948-7.7344-15.092-6.018-5.2882-35.84-13.662-47.962-4.5964-32.041-9.8081-79.194-6.2898-102.33-6.1228-31.764 20.944-78.145 16.042-90.825 14.436-14.496-7.6586-15.868 5.7246-40.745 1.5521-11.41 14.34 4.7749 13.871-24.43-3.8802 26.367 2.0764 27.523 5.8631 7.4841 7.8275 8.0096 18.508 1.3836 17.065 10.889 8.2538-10.937 15.08-4.4578 18.025-18.855 15.253-24.904 13.636 27.759 29.667-4.1912 27.153 15.407-12.669-52.55-1.5238-16.71 11.291-7.6944-5.8917 24.248-7.8098-6.1625-4.4805-13.829 5.37-30.426 17.333-23.462 10.137 25.79 1.5406-17.991-13.475-22.804 19.8 12.55 1.7702-33-9.4828-12.788-24.439 5.036 33.032 34.773 3.9359 24.925-12.188-13.633-2.3834 6.5308-19.71 6.7018 14.902 14.8-9.3508 20.581-0.9334 26.307-24.361 19.263-2.4826 3.4142-6.6667 14.872-11.679 2.2294-32.237 20.141-39.299 13.795-2.5104-15.855-17.389-39.423-22.654-48.138-11.884-7.0201-22.068-23.85-11.271-3.1277-7.9481-15.485-27.477-37.956-21.918-34.692-19.425-20.681-92.53-0.68917-40.675-37.139 16.742-2.5636 55.673-36.043 52.482-20.688 4.7246 13.978 4.0419-11.383 12.439 0.65359 17.506-11.095 50.559-17.124 70.045 0.76309 21.006 16.13-8.5824-3.6393-6.6132 20.269-12.914 27.175 20.724-30.282 32.683 0.15612 30.994-1.3523 15.747 20.975 31.162 13.122 15.987 12.569 18.785 17.75 8.7899 21.535-3.1019 1.6734-16.255 27.359-5.4409 34.454 5.0844 9.0149 14.197 0.46802 19.499 15.871-1.8866 14.88-22.903 25.313 8.4368 40.466 32.262 33.928-8.3801-23.131 1.6667-7.5032 19.683 6.4337 46.115 53.707 25.178 7.3741-12.753 3.9596-45.87-39.159-8.5117-11.463 23.209 9.6367-7.2923-0.72188-4.0327-6.5247-13.917-21.337-14.357-20.389-25.157-41.386 20.325 3.1443-26.006-22.859-2.1436-26.763 15.851 13.321 39.491 20.364 41.333 38.175-17.218-14.17 13.955 53.352 17.333 44.396 19.98 31.011 1.681 11.7-0.1317 6.2682 0.77238 25.804 15.793 7.3856 26.158 35.008-9.9824-24.267 18.511 4.3454 6.8038 2.249-3.3806-8.9404-0.54394 25.752 7.1694 16-5.6425 14.663 17.047 8.5148 8.1433 2.8527-7.4792-1.19-11.694-29.327 8.3324-2.186 53.518 36.297-42.965-39.447 2.044-5.5351-29.158-26.485 12.287-2.3039 1.7196 2.3192 17.005 10.032 71.231 58.665 25.427 22.218-19.454-4.5131 11.606 9.4735 19.595 19.585-14.83-11.213-51.644-20.462-14.002-5.405 19.152 12.264 3.2424 12.507-24.471 0.27044-8.9081 3.0519 60.876 18.944 37.878 19.856-24.312 0.74565-48.995-25.925-63.593-27.53 22.447 6.5526 37.394 17.822 33.973 22.305 10.989 12.799 66.28 11.047 55.925 10.909 44.122 11.66-14.09-1.0528-9.2859-4.4472-32.82-16.778-3.2926-18.571 9.8428-14.023 20.685-0.42477 69.591 27.314 22.168 12.115-56.922-5.8512 88.118 17.821 37.251 20.921 23.215 3.3335 31.53 5.07 43.685 4.6697 33.842 9.4652 7.9668 4.9192-13.141 13.011 32.568-8.2435 50.047 0.63331 78.739 12.306-37.304-6.4067-9.5565 0.92107 13.027 5.6984-8.7941 8.95 26.364 7.5237 29.78 19.075 28.294 4.5262 0.14938 15.5 34.884 22.545 34.121 15.435 59.398 27.33 74.276 57.096 9.8078-1.0677 50.828 38.484 39.675 34.616 3.5986-7.7245 48.881 63.561 19.368 28.566-18.007-14.386-40.259-43.982-56.084-48.142-7.5832-12.59-4.8412 11.901 2.4981 8.0368 11.671 10.974 11.603 2.6487 12.487 21.935 13.997 3.3015-5.3878-13.142 14.572 0.73384-10.576 6.454-25.609 0.71467 0.27063 10.156 6.7568 1.6281 19.061-0.85243 21.682 12.663-5.1964 1.9268 27.941 13.37-3.5962 8.8204-1.1494 2.9747 20.295 11.009 15.2 18.808 15.013 4.0123 20.517 20.874 6.2105-5.4856 6.1412-31.079 12.674 33.409 27.934 35.556 14.95 14.174 8.0602 37.157 2.762 2.8748-17.882-15.07 14.668 35.483-11.524 2.2037-26.777-49.146-9.5389 24.853 11.233 25.077 10.335 16.768 35.054 51.12 11.78 12.585 8.8752-4.1652 21.37 41.563 22.085 53.838-6.4524 12.112-9.3158-17.039-10.631 8.6885-15.917-25.895-36.01-63.13-38.192-84.2-7.9447 2.2501-1.8938 9.4188-10.627 4.9111 3.2324 24.946 30.098 55.312 27.257 71.214-25.325-45.099 10.257 37.879-25.161-3.2665-16.726-13.454-61.201-94.776-37.878-34.179 8.6637 19.494 67.236 72.337 21.444 43.341-19.053-7.4369-40.661-45.838-19.53-7.0465 19.603 23.39-32.748-25.076-12.977 8.0093 9.3176 22.35-22.291-12.326-10.467 14.382 0.9085 5.651-8.14-4.1399-2.5686 7.3913 5.4038 25.124-28.843-26.286-12.662 3.8438 6.6343 19.383-15.976-20.246-3.3979 6.776-19.642-9.5996-6.3674 7.5286 10.34 19.566-17.21-6.8995-47.334-23.675-17.756 3.9978-15.637-9.5262-18.621 5.181-24.502-13.034 7.9698 21.079-16.378-16.44-0.42105 16.66 9.3624 14.257-24.436 18.626 13.405 25.482 25.853 10.403 45.643 39.845 3.3799 24.259-16.404-0.10524-81.305-17.055-69.131-10.161 21.86 13.867-32.729 22.839-11.342-2.5934-15.155-1.5517 1.2459 29.651-13.492 11.927 5.5184 11.175 6.5322 33.088-3.4385-1.1533-8.8746-5.3554-4.4335 31.491-20.225-6.4977-20.771-24.099-60.509-49.943-82.962-47.819 11.083 24.968 39.99 27.4 56.261 48.334-9.9925-3.5967 42.807 44.412 10.524 39.308zm28.165-27.298c-4.4314-3.4509 4.2162 7.2726 0 0zm-88.832-22.311c-12.326-3.58 6.8217 4.5626 0 0zm119.16-3.6667c-11.976-23.737-9.0513-1.5326 0 0zm-47.83-6.2546c-3.1116-4.5796-3.8403 2.5407 0 0zm14.667-0.74536c-9.7712-5.5904 3.3061 5.2514 0 0zm41.333 0c-5.1257-4.7803-3.4177 4.9385 0 0zm-63.886-3.1957c-17.76-5.3694 4.1994 6.5412 0 0zm31.85-6.8262c9.4257-10.432-32.428-3.3181 0 0zm-53.531-2.6167c-14.958-11.493-2.8763 6.8131 0 0zm20.962-0.41096c-18.569-7.2232 3.5407 5.8809 0 0zm113.27 1.0496c-7.0617-4.8713 1.4948 4.5952 0 0zm-99.333-4.5531c-11.865-11.037-27.095-14.351-5.3333-2.9752zm-57.333-9.4469c-10.905-7.7427 1.8335 7.0976 0 0zm16.972-0.1389c-4.9088-1.5122-2.4493 2.3221 0 0zm-24.312-3.2039c-12.581-10.109-4.6139 1.0007 0 0zm61.734-3.9299c-6.8721-7.8364 4.8921 8.7668 0 0zm38.938 1.2727c-3.2883-4.7497-1.6126 4.8749 0 0zm21.333 0.82992c-4.3168-6.1759-4.696-1.044 0 0zm-236-1.2642c-6.8195-7.552-9.9887-7.9864 0 0zm210-2.2324c-7.0617-4.8713 1.4948 4.5952 0 0zm62-0.50341c-4.3168-6.1759-4.696-1.044 0 0zm-100.74-3.4966c-7.3838-18.488-10.972-9.5017-0.0659 2.5195zm-73.286-3.5525c-38.22-25.71-0.67487 6.9744 0 0zm100.7 2.2192c-3.2883-4.7497-1.6126 4.8749 0 0zm-57.333-1.3333c-3.2886-4.7497-1.6126 4.8749 0 0zm48.721-3.9113c-6.2091-5.7327 1.3268 7.1517 0 0zm44.323-1.7554c-1.635-11.226-1.498 13.604 0 0zm-76.09-2c-0.68711-9.2802-1.9109 12.066 0 0zm-174.2-3.1609c-5.6138-6.5889 6.3334-16.42 2.903-10.998 1.7727-5.7558-33.39-57.71-50.358-74.82-8.3068-26.529-80.981-68.811-37.311-20.982 5.3992 11.984 44.69 38.218 31.348 44.152 9.6335 8.6702 23.585 27.258 31.101 42.809 7.6851 1.6511 19.222 26.036 22.318 19.839zm168.16-1.4613c-5.8257-1.1808 4.129 6.0267 0 0zm27.194-2.0762c-6.6681-6.1073 6.9343 9.5805 0 0zm-30.842-3.0821c-6.0269-2.5365-0.42659 6.525 0 0zm9.2588-1.783c-8.4777-9.6144 0.8426 6.3705 0 0zm136.91-5.1401c-10.388-11.879 8.8581 13.226 0 0zm10.357-2.2963c-11.32-13.123 9.3951 13.916 0 0zm-169.12 2.1426c-5.6205-4.4017-3.3529 2.359 0 0zm-29.333-4.8093c-6.9377-5.2566-4.175 3.9965 0 0zm57.333-0.46001c-5.1987-8.2181-6.5478-1.594 0 0zm15.639-0.34555c-4.9086-1.5121-2.4495 2.3221 0 0zm-21.639-1.8611c-7.0617-4.8713 1.4948 4.5953 0 0zm-66-3.3333c-9.5843-7.5343 4.4336 7.0909 0 0zm99.287-3.4086c-8.2737-2.148 1.0123 11.022 0 0zm52.784 1.0753c-7.8849-4.3013-0.26142 8.5064 0 0zm70.484-0.20004c-37.16-17.703-10.468 0.12214 0 0zm-13.889-2.1333c-7.0617-4.8713 1.4948 4.5953 0 0zm37.127-0.72417c-4.272-5.2506 1.4586 6.6108 0 0zm-120.46-0.57492c-9.2844-8.5472-10.296-3.8177 0 0zm-139.83-2.3676c-11.305 1.975-36.554-31.579-38.712-23.744-7.7734-3.6039-13.111-25.953-15.979-5.9227-9.5546-17.222-13.328-34.86-24.625-13.782 18.422 7.3721 40.211 34.751 66.787 39.465 1.6128-4.4098 10.186 11.97 12.529 3.9834zm66.497-0.26662c-6.1739-6.2612-9.5172 6.7149 0 0zm93.794 0.54244c-4.272-5.2506 1.4586 6.6108 0 0zm-188.99-2.6226c-5.9768-12.981-0.46213 5.8198 0 0zm202.01-4.8048c-9.6574-7.2306 8.6523 13.471 0 0zm-105.48 2.8183c-3.2884-4.7497-1.6124 4.8748 0 0zm300.59-5.8334c-18.462-27.957 1.3167 12.565 0 0zm-217.92 0.24636c-4.8657-2.8695-3.9311 6.8436 0 0zm204.95 0.25376c2.4252-19.408-14.907-38.518-2.2323-5.3333-4.5239-1.601 4.292 14.101 2.2323 5.3333zm-188.06-0.44444c-5.2118-6.6318-0.29414 5.8849 0 0zm10.583-3.1944c-6.5194-0.0308 3.6348 6.8998 0 0zm-132.85-3.0278c-2.6356-3.822-3.1762 12.831 0 0zm273.87 1.8011c-2.8962-25.554 5.5305-0.47308 4e-4 3e-5zm-418.71-1.9939c-25.401-26.284 6.8103 14.312 0 0zm268.1-0.0356c0.68495-33.054-16.023-5.4983 0 0zm-190.55 0.2284c-7.0617-4.8713 1.4948 4.5952 0 0zm107.97-3.9338c7.7648-25.437-9.4265 15.746 0 0zm-38.839 0.54294c-4.2721-5.2505 1.4587 6.6108 0 0zm-52.218-0.9839c-16.279-21.992-40.173-73.386-52.106-77.709 3.0145 13.421 23.509 32.117 23.198 51.417-19.982-12.66 12.979 24.902 29.66 27.598l-0.75083-1.3065zm78.495-1.8102c3.6546-14.057-6.1485 12.572 0 0zm173.97 2.247c-11.345-10.724-6.4097-1.9186 0 0zm-134.04-17.933c-21.684 14.407-14.913 21.613 0 0zm13.219 7.8706c-6.8796 3.1909 1.2136 8.8886 0 0zm123.87 4.0541c-10.667-4.7531-8.0853 1.1801 0 0zm20.245 1.358c-3.1114-4.5797-3.8402 2.5408 0 0zm51.28-2.2457c-2.2692-5.7947-35.808-62.54-19.28-49.241-10.934-16.851-18.989-69.7-32.279-63.114 19.578 13.915-4.2095 19.182 18.302 46.041 9.677 24.823-27.299-10.145-9.0298 21.665 17.919 6.1962 27.795 39.732 42.287 44.649zm-13.947-18.5c-4.2469-11.742 7.1011 8.6724 0 0zm50.737 16.751c-6.692-19.59-8.8542-0.44113 0 0zm-311.69 0.19118c-9.6844-12.621 0.20293 9.7783 0 0zm141.02-2.6464c-10.599-11.539 9.3796 12.586 0 0zm-290.73-0.13304c-4.317-6.1759-4.696-1.0439 0 0zm17.713-8.0521c-12.613-26.776 15.12 18.546-2.0058-15.621-8.2614-8.961-51.961-55.777-41.635-33.9-6.8018 0.70136 1.8186 28.242 23.101 38.481 7.0039-1.3227 29.113 34.04 20.539 11.04zm118.73 6.1111c-8.0885-9.0098 1.816 8.1391 0 0zm118.22 1.2538c-5.1358-7.0019-2.8155 3.1209 0 0zm16.245-17.022c-9.3358-18.151-24.104-41.293-6.6315-9.3926 5.9567 12.105 19.328 38.309 6.6315 9.3926zm22.461 12.954c-8.4526-12.334 3.5054 9.5607 0 0zm-31.215-4.9564c-6.9887-11.127 6.1971 14.346 0 0zm-217.7 1.4913c-4.272-5.2506 1.4586 6.6108 0 0zm239.7-2.8425c-4.8576-6.102 3.6192 9.8375 0 0zm-44.183-3.2267c15.91-26.458-12.96 10.267 0 0zm-45.736 1.21c-2.4675-2.716 1.3385 7.804 0 0zm13.861-14.186c-3.5846-11.537-17.468 35.143 0 0zm-23.404 7.436c4.7844-17.416-12.99 23.586 0 0zm-11.248 1.8904c-12.351-15.539 4.0442 9.4211 0 0zm-116.49-2.8264c-2.1694-18.653-5.6314 4.6757 0 0zm340.52-1.7806c-4.8894-1.9158 3.6272 8.8825 0 0zm48.195-1.975c-4.9842-3.8993 0.13126 11.744 0 0zm-87.434 0.77503c-2.4675-2.716 1.3385 7.804 0 0zm-210.24 0.3977c-7.4584-12.758-6.0605-5.7043 0 0zm108.58-2.6733c-10.299-3.6618-15.176 5.17 0 0zm101.58-5.2244c-7.6284-5.315 6.2338 12.184 0 0zm-256.82 3.2466c-4.3168-6.1759-4.6959-1.044 0 0zm-190.83-6.1632c-15.465-17.95 12.709 18.823 0 0zm502.83 4.1426c-5.1358-7.002-2.8153 3.121 0 0zm-250.55-3.919c-10.895-14.463 2.3694 8.4715 0 0zm56.905-6.8119c-4.1332-25.127-8.975 29.374 0 0zm-315.23 4.5307c-4.272-5.2506 1.4586 6.6108 0 0zm142.33-2.9433c-6.6716-16.162-48.757-52.88-15.675-11.499 6.3869 0.63965 8.3583 22.94 15.675 11.499zm154.71 0.64521c-4.4315-3.4511 4.216 7.2726 0 0zm-228.17-2.8145c-4.3168-6.1759-4.696-1.044 0 0zm257.19-10.184c12.549-17.275-22.622 22.055 0 0zm-186.43 0.1376c-1.626-17.444-5.5085 9.2036 0 0zm42.557 1.2331c-10.603-23.884-47.115-54.135-47.434-50.506-21.402-13.697-6.4065 11.648-3.5567 10.636 1.1967 4.099 27.836 36.409 7.6957 4.1026 15.805 11.666 30.281 39.848 43.295 35.767zm-38.658-42.017c-8.3776-7.1255 14.882 7.4732 0 0zm300.17 41.644c-4.4314-3.4509 4.2162 7.2726 0 0zm-156.05-1.9778c-12.868-24.648-32.223-37.619-8.6738-9.1019-1.1124-2.254 12.247 16.643 8.6738 9.1019zm77.173-3c-2.6357-3.822-3.1763 12.831 0 0zm-260.71-13.372c-17.351-23.882-51.912-70.622-69.921-69.621 24.023 24.491 32.823 43.778 56.827 67.217 12.438 12.557 32.276 27.833 13.094 2.4041zm406.76 13.402c-8.11-9.3149 0.0175 13.308 0 0zm-463.51-3.697c-2.886-23.765-62.686-83.223-34.562-29.25 7.0179 20.83 25.17 29.025 17.145 15.19-0.89974 4.0618 25.423 30.222 17.418 14.061zm423.36-0.0996c-5.8612-18.398-18.188-23.416-9.0402-31.906-4.3016-8.8121-51.305-45.434-19.373-9.4518 8.0019 12.43 12.631 31.788 19.448 38.382-9.7861-14.931 16.298 14.018 8.9654 2.976zm33.264 0.37539c-4.272-5.2506 1.4586 6.6108 0 0zm-135.79-1.9425c6.8209-9.5364-9.9502 9.6968 0 0zm113.33 1.3333c-7.0617-4.8713 1.4948 4.5952 0 0zm-492-4c-8.7714-14.359 5.7554 14.191 0 0zm6.0152-0.81508c8.321 9.641-26.17-91.202-28.723-44.943 3.9497 22.144 16.133 40.389 23.855 41.17 0.58199 1.9168 8.6875 14.664 4.8671 3.7735zm299.96 1.4495c-7.7847-5.1261 4.7224 6.4789 0 0zm8.2298-3.8423c-4.6575-13.77-21.782-35.315-7.3768-5.9501 0.70969 4.3951 3.1792 9.1211 7.3768 5.9501zm-14.085-4.4521c-6.2993-0.3494 4.1534 9.7277 0 0zm56.528-0.76238c12.67-19.186-1.3881-8.5193-2.3046 4.9959l0.89038-0.5736zm82.812-1.3193c-5.453-0.29965 4.3545 10.777 0 0zm5.2083-0.41575c-4.9039-4.8595-1.599 8.6533 0 0zm40 2.9873c-4.317-6.176-4.696-1.0439 0 0zm-216.92-5.2736c-27.93-29.072-10.591-6.1151 0 0zm17.742-9.9225c-7.7032-23.742-36.191-58.837-8.8424-16.3 1.2394 1.2232 14.554 34.322 8.8424 16.3zm-91.489 3.1116c-3.1116-4.5796-3.8403 2.5407 0 0zm50.667-2.6027c-5.6203-4.4017-3.3528 2.3589 0 0zm270.67-1.3973c-3.1115-4.5797-3.8402 2.5408 0 0zm-138.67-1.2488c-4.317-6.176-4.696-1.0438 0 0zm53.333-5.5918c-4.0277-18.846-3.6379 21.147 0 0zm-102.67-0.93907c-6.9502-0.62117-7.5662 8.928 0 0zm-93.333 2.521c-9.369-7.9529-8.7523-4.023 0 0zm138.67-1.3234c-4.317-6.176-4.696-1.0439 0 0zm-249.33-2.1632c-3.2883-4.7497-1.6126 4.8749 0 0zm44.32-0.46896c0.59673-4.9879-9.7798 2.68 0 0zm169.47-1.5886c-4.272-5.2506 1.4586 6.6108 0 0zm-127.79-1.9425c-7.0617-4.8713 1.4948 4.5952 0 0zm138.52-3.3333c1.0241-10.711-4.2935 14.479 0 0zm83.643 1.1c-4.8577-6.1021 3.6191 9.8375 0 0zm89.631 1.5092c-4.272-5.2506 1.4586 6.6108 0 0zm-352.46 0.10442c-6.0168-5.6541-5.4998-0.5912 0 0zm302-0.71358c-7.0619-4.8712 1.4946 4.595 0 0zm0.6666-3.3333c-9.5843-7.5343 4.4336 7.0909 0 0zm-350.2-1.3704c-8.9948-12.045-2.3736 5.2164 0 0zm14.199-1.2494c-5.7555-6.7581-6.1938 0.57128 0 0zm16-0.0133c-10.155-7.734-10.878-2.9426 0 0zm38.701-3.1042c-31.713-23.616-2.4265 1.7325 0 0zm226.6 0.40394c-9.5183-18.099 0.0904 12.037-9.8166-8.4838 0.86018 4.0169 3.9412 13.875 9.8166 8.4838zm58.697 1.4966c-4.3168-6.1759-4.6959-1.044 0 0zm-436-3.5628c0.21549-20.973-45.918-72.817-22.667-24.148 6.466 6.2307 16.614 23.319 22.667 24.148zm110.3-2.6005c-16.334-10.178 8.861 9.3189 0 0zm323.9 0.22835c-1.9655-9.71 11.762 1.59-4.0423-16.74-18.118 9.4732-15.374-46.364-23.603-26.489-28.913-19.589 2.2446-40.958-22.044-45.688-3.8569-17.867-22.006-18.756-36.793-27.986-17.141-22.473-76.444-44.147-40.505-16.459 16.889-4.9854 27.469 15.481 13.702 9.1328-27.46 2.6895 17.529 5.4036 9.5609 13.334-16.662-5.0435-67.268-31.207-33.416-5.4396 19.588 6.6923 40.069 5.2978 22.384 9.6804 9.5259 9.797 62.86 29.006 63.217 40.391-7.9199 8.6816 14.179 22.028-13.126 9.9786-19.953-7.3885-48.208-26.77-12.431-0.65704 18.997 3.2111 40.484 30.566 34.53 4.8244 18.882 15.06 7.1954 14.158 23.244 31.888-37.875-36.32-13.955 4.0815 7.7824 12.042-13.099 8.2346 18.611 6.9954 11.54 8.1865zm-52.873-61.562c3.4065-4.7833 3.4065 4.7833 0 0zm3.4341-11.837c-18.208-9.0912-69.958-47.459-31.283-30.928 11.353-7.5622 14.848 5.9256 25.183 14.843-10.126-1.1907 23.635 15.143 6.1008 16.084zm-31.434-33.496c3.2885-4.7497 1.6124 4.875 0 0zm-46.078-8.6243c-5.1276-7.0076 17.037 7.2898 0 0zm33.745-0.13836c-13.26-8.7374 17.364 7.2085 0 0zm-21.667-4.5707c3.2885-4.7497 1.6124 4.875 0 0zm-14.408-19.375c-6.982-12.333 20.114 11.864 0 0zm-228.16 139.54c-19.379-12.177 2.4479 5.8123 0 0zm313.89-3.7774c-3.5689-5.8434 3.1197 13.377 0 0zm-509.78-0.7169c-2.3336 1.3326 2.164 7.3424 0 0zm501.78-1.4616c-6.8921-12.51-4.0896 11.061 0 0zm-584.42 0.21162c-2.2861-2.2924 1.1511 7.4541 0 0zm77.333-2.6667c-2.2861-2.2924 1.1511 7.4541 0 0zm180.14-1.3979c2.2717-17.057-12.302 12.836 0 0zm66.232 1.4809c-4.1953-23.476-27.16-36.197-38.829-42.834-13.164-18.081-67.951-40.395-26.193-12.802 32.646 19.56 48.247 32.164 65.023 55.636zm292.28 1.0559c-5.7937-6.155-0.9379 5.615 0 0zm-542.67-3.8889c-2.3336 1.3326 2.164 7.3424 0 0zm205.67 3.8473c-7.1647-6.6811-7.763 0.31366 0 0zm-123.64-9.7753c7.789-24.343-46.399-102.61-20.409-42.504 3.043 7.0691 21.17 60.702 20.409 42.504zm126.42 2.2614c-19.497-13.279 14.027 13.88 0 0zm320.48-0.66666c-3.7128-6.2049-1.753 6.8607 0 0zm-320.44-3.2591c-8.4707-11.753 2.2011 9.7951 0 0zm202.63 0.59241c8.0265-6.9574-14.637 6.7156 0 0zm122.67 1.412c-3.1907-4.5525-5.3979 2.5539 0 0zm27.672-7.0787c-8.6554-5.3208 3.4821 14.606 0 0zm13.661 5c3.0486-5.2631-9.7434 4.4641 0 0zm-245.63-3c-14.798-15.098-1.8792 2.9034 0 0zm34.096-2.9395c-24.431-19.196 9.3155 14.344 0 0zm155.54 0.42807c-7.3214-7.0287-5.0995 11.436 0 0zm6.6667 3.6747c-3.5556-6.7451-4.9495 0.78972 0 0zm-169.36-2.8622c-6.2833-5.7305 1.5386 7.2155 0 0zm140.19-1.5344c-4.7021-5.7956 2.6806 9.9694 0 0zm-462.38-10.433c1.2938-25.043-9.9971-52.563-6.099-9.0879-2.0416 0.72963 7.8527 34.598 6.099 9.0879zm215.55 9.5657c-6.8194-7.552-9.9888-7.9864 0 0zm37.333-0.0741c-11.573-10.885-10.588-5.7505 0 0zm-101.33-1.2849c-6.6488-8.5004-7.6125-3.0258 0 0zm26.98-2.7417c7.0333-9.5592-16.732 5.0431 0 0zm-235.53-4.4583c-6.2992-0.34921 4.1536 9.7277 0 0zm520.55 3.6599c-3.4066-4.7832-3.4066 4.7832 0 0zm-517.76-4.25c-2.2861-2.2924 1.1511 7.4541 0 0zm529.76-0.33797c-3.1116-4.5796-3.8403 2.5407 0 0zm-365.9-7.0787c-6.1286-19.564-60.241-69.762-26.013-26.804 5.4647 4.3917 27.909 34.438 26.013 26.804zm33.896 1.6667c-9.6671-17.649-52.056-46.819-13.58-10.975 5.7362 0.70009 7.8722 17.275 13.58 10.975zm102.67-2.3718c-17.3-18.047-26.682-24.778 0 0zm-384-2.2161c-2.5302-6.7139-4.1416 4.8355 0 0zm6.5442-6.6299c-8.2097-28.927 1.5449 24.721 0 0zm13.456 4.4076c-6.3074-27.047-20.546 6.4132 0 0zm15.264-6.4232c-10.304-15.756-7.1654-70.224-9.0162-22.344-2.5395 6.2558 10.093 43.664 9.0162 22.344zm92.388-14.355c2.4671-15.178 9.7266-36.67-8.3414-61.921-9.3254-8.7166-13.399 6.9556-3.4483 26.341 0.14431 7.4086 12.303 97.009 11.79 35.579zm-10.109-25.078c1.1668-6.0099 1.1668 6.0098 0 0zm309.12 47.54c-6.948-7.8611-8.03-5.7058 0 0zm-402.67-4.2067c-3.2186-9.2684-3.2186 9.2684 0 0zm640.81-0.30556c-6.5192-0.0311 3.6343 6.8999 0 0zm-342.14-0.82112c-6.948-7.8611-8.03-5.7059 0 0zm246.78-2.9066c-21.418-12.131-12.91 1.6294 0 0zm-21.809-3.1991c-7.7174-7.1821-4.539 7.8174 0 0zm116.36 1.2324c-3.2883-4.7497-1.6126 4.8748 0 0zm-219.09-5.5833c-2.4675-2.716 1.3385 7.804 0 0zm-420.91 0.99536c-3.1117-4.5798-3.8404 2.5408 0 0zm464.07-1.9512c-15.746-20.348-67.443-40.077-20.347-10.158 1.6643-0.66637 25.252 19.147 20.347 10.158zm163.08 0.54684c-5.3273-4.8462-0.58609 6.7437 0 0zm-455.94-4.1766c-5.2869-22.083-22.273-44.989-1.806-20.806-7.9035-34.445-33.659-27.633-10.435 3.4416-11.876 0.47791 9.0805 25.478 12.241 17.365zm134.79-0.49776c-7.0617-4.8713 1.4948 4.5953 0 0zm273.85-2.0921c2.6649-8.9407-12.329 5.3611 0 0zm35.621-1.5468c-6.5194-0.0308 3.6347 6.8998 0 0zm-49.266-1.4661c6.1012-10.219-23.399-9.7534-34.154-18.261 4.8575 9.8166 32.94 15.126 34.154 18.261zm-64.022-2.2284c16.141-17.639-22.856-15.916-37.167-33.484-15.607-11.817-57.064-26.929-21.804-3.5639 18.205 12.088 47.017 25.129 58.971 37.048zm107.82 0.66667c-5.1256-4.7803-3.4175 4.9385 0 0zm-142.72-5.2388c18.756-20.333-12.068 8.769 0 0zm-487.45-7.4278c-4.0926-29.702-0.96411 28.613 0 0zm512.14 7.3719c2.8506-4.4617-9.4268 4.1027 0 0zm-246.65-1.2164c-6.6314-11.075-13.155 2.3227 0 0zm241.33-0.74348c-3.1117-4.5798-3.8404 2.5408 0 0zm-340-3.1572c-3.9638-10.429-3.8879-0.10315 0 0zm104-2.9215c-7.2361-8.404 4.1916 11.509 0 0zm162.67 2.6974c-12.837-20.376-89.187-58.689-34.688-21.587 11.154 4.9634 24.442 20.098 34.688 21.587zm-146.69-2.063c-6.2831-5.7304 1.5386 7.2155 0 0zm56.729-0.37693c-5.7995 1.5838-2.5774 3.7735 0 0zm7.2981 0.25365c-7.0504-2.2883-7.0356 4.1067 0 0zm45.308-5.4688c-3.3513-5.6062-8.4956 16.894 0 0zm-387.91-7.7091c-1.9376-24.36-2.6672 31.636 0.29762 6.6292zm152.4 10.609c-4.272-5.2506 1.4586 6.6108 0 0zm194.91-0.35166c-5.7995 1.5838-2.5774 3.7735 0 0zm-68.035-1.5908c-4.7844-5.0762-1.6556 5.2566 0 0zm-238.41-7.6667c-2.1448 1.9828 2.0751 10.327 0 0zm-49.342-0.58334c-2.2861-2.2924 1.1511 7.4541 0 0zm63.089 0.91667c-1.1538-7.0428-3.1648 6.996 0 0zm485.8 0.34475c-24.452-9.4243-47.845-9.1864-9.9004-0.98013-3.0383 1.7921-3.0976 3.3353 9.9004 0.98013zm-308.07-1.4814c-20.576-25.3-8.952-4.1715 0 0zm23.01-1.8633c-15.207-23.407 4.8346 12.463 0 0zm200.06 2.1068c-16.322-8.7279-66.417-35.853-49.501-37.062 1.6003-7.6543-43.209-19.099-47.82-18.216 7.9277 19.808-77.67-25.873-59.087-17.381 0.87501-7.5224-32.956 0.63676-29.242 1.8854 9.9657 1.9038 61.318 10.443 53.897 17.563 37.131 8.3341 15.891 7.7285 26.764 13.829-18.026 8.8734 36.582-16.448 44.892 6.1337-30.729-10.757 6.7665 9.4326 10.538 9.3349 3.8666 6.2471 32.629 25.803 49.56 23.913zm-169.78-71.364c8.788-1.9732 1.7062 2.2112 0 0zm143.03 69.02c-10.624-10.752-1.0881 5.2773 0 0zm-362.51-3.0959c-2.3336 1.3326 2.164 7.3424 0 0zm304.45-1c-24.991-20.722-55.679-40.766-85.277-47.453 25.608 15.854 64.721 35.286 85.277 47.453zm-83.333 0c-10.488-4.714-0.94215 3.55 0 0zm316.79 0.10293c-10.394-2.2765-0.0837 4.1054 0 0zm-70.788-2.1029c-16.754-7.5994 8.2818 7.1448 0 0zm-203.12-1.5663c13.663-11.111-8.017 0.28138 0 0zm25.788-0.29104c-5.1358-7.002-2.8154 3.121 0 0zm-54.667-0.68761c-17.603-16.348-24.534-15.625 0 0zm188-0.0431c-3.1116-4.5796-3.8403 2.5407 0 0zm-461.43-8.0786c-5.841 5.232-2.5861 9.7531 0 0zm177.78-1c-13.043-28.751-12.638-3.7336 3.2564 8.3333zm300.31 7c-14.054-9.905-16.785-3.9678 0 0zm18.667 0c-4.7844-5.0763-1.6559 5.2565 0 0zm-500.69-4.412c-1.4744-7.471-3.8618 12.348 0 0zm15.508-12.671c-1.3 4.7829-3.316 27.216 0 0zm37.395 12.75c-2.3336 1.3326 2.164 7.3424 0 0zm-63.632-12.415c9.5415-19.421 24.573-24.437 17.082-37.272 5.7667-21.843-12.532 4.23-13.156 13.012-5.3515 25.617-22.463 38.222-8.5597 29.616-7.4781 20.185 5.2094-3.1578 4.6337-5.3561zm14.748-25.839c0.50076-8.7189 3.8118 7.1482 0 0zm160 36.584c-9.1096-28.007-24.005-34.509-11.165-5.4573-5.7508-19.172 15.039 19.486 11.165 5.4573zm37.335 2.9416c-12.537-13.177-14.544-12.65 0 0zm322.67-0.19191c-3.1114-4.5797-3.8402 2.5408 0 0zm-386.67-4.7454c-7.1714-8.4057 4.5968 11.059 0 0zm301.33 0.15551c-6.8609-6.1662-4.3245 3.4724 0 0zm-335.41-8.4888c-0.0668-23.799-25.803-60.498-13.688-15.566 0.55983 25.347 7.0202 13.69 4.2035 13.524 3.1462 1.3512 14.197 19.275 9.4842 2.0423zm345.98 2.8049c-5.8497-6.8176 2.3958 10.767 0 0zm-81.229 2.3584c-4.3168-6.1759-4.696-1.044 0 0zm112 0.0435c-6.6486-8.5004-7.6127-3.0258 0 0zm-513.49-12.207c-7.1908 8.5963-0.64581 14.18 0 0zm47.493 10c-1.6125-4.8749-3.2884 4.7497 0 0zm492-2.0246c-21.534-16.314 9.3399 12.554 0 0zm-104.45-3.6246c-7.1157-0.49759 5.3455 10.506 0 0zm17.687 1.573c0.86022-3.9698-13.503 4.1756 2.9987 3.5954l-2.999-3.5954zm-142.57-2.5976c-0.17522-5.3947-11.148 10.485 0 0zm74.587 1.0438c11.879-16.097-15.478 11.542 0 0zm83.409 2.4102c-12.785-13.885-21.578-9.3977 0 0zm-299.45-6.4469c-13.689-51.887-22.869-12.662 0 0zm340.54-0.13267c2.3966-3.149-10.181 2.9403 0 0zm-211.75-2.8673c-13.368-16.502-68.269-22.721-22.566-6.3982 3.5996-0.77694 24.411 13.361 22.566 6.3982zm-40-2.1317c-15.418-22.688-9.5513 0.46939 0 0zm-152.7-6.588c-5.7381-22.936-10.211-66.119-21.366-71.603 5.3795 25.494-12.496 19.474 8.2036 37.335 2.2892 13.434 6.3474 44.69 7.2619 28.988-0.47207 5.1451 6.6253 17.555 5.9007 5.2804zm-18.412-44.836c-3.9218-11.424 3.8232-2.5992 0 0zm2.6092-3.8293c-3.682-11.9 4.8558 6.813 0 0zm121.86 47.848c-6.2428-25.199-56.515-58.509-17.279-15.862 3.362 0.66158 26.032 37.771 17.279 15.862zm134.07 3.3759c-5.2949-4.2498-7.9768 6.5999 0 0zm14.472-9.7438c-10.358-5.1536 7.2703 8.2174 0 0zm-115.24-3.4286c-13.102-30.299 9.1754 67.107 1.7574 3.9556zm229.22 3.6227c-5.7056-6.2543-6.3391-1.0615 0 0zm54.111-0.95604c-7.701-5.4134-2.0763 4.2218 0 0zm-475.72-3.8701c-4.6003-11.519-0.46733 12.643 0 0zm263.05 1.2034c2.1892-5.0357-14.228 5.0583 0 0zm44.722-1.2446c-6.2091-5.7327 1.3268 7.1517 0 0zm-360.84-5.422c-3.8088-2.9621-2.0503 14.226 0 0zm48.781 2.6667c5.8843-5.2429 11.153-24.625 3.2105-30.323-2.1646 10.926-10.738 26.654-3.2105 30.323zm4.7719-30.111c0.8578-5.1386 1.3526 6.0688 0 0zm-62.813 28.111c-4.6724 1.8127-1.0862 7.4479 0 0zm172.67-2.6326c-4.2509-12.762-10.723-36.621-23.862-70.788-9.813 10.202 4.8238 43.339 12.435 58.087-7.4708 0.92856 17.444 28.382 11.426 12.701zm85.366 4.6479c-3.3744-2.4384-5.3084 4.2952 0 0zm42.009-2.8452c-7.6641-6.4809-7.729 12.235 0 0zm215.67 3.2441c1.624-17.979-33.543-3.0947 0.2222 0.76444l1.2243-0.24546zm-23-1.7476c-7.0617-4.8713 1.4948 4.5953 0 0zm-117-4.7667c-2.0802-8.6582-1.5503 10.701 0 0zm119.87 0.99501c-10.512-25.218 0.41024 12.275 0 0zm-243.64-2.3769c-13.011-13.111-38.19-22.65-8.9126-4.6645 0.18929-0.80236 17.471 14.581 8.9126 4.6645zm99.489 0.9039c-6.2092-5.7328 1.3266 7.1517 0 0zm-72.86-0.86304c-18.848-18.227 22.406 1.8741 17.45-9.8696-20.935-1.363-36.623-0.81717-22.299 10.832zm209.57-3.596c-10.387-11.877 8.8576 13.226 0 0zm-153.74 1.9222c-9.6554-14.688-20.062-1.6637 0 0zm-290.29-9.5518c10.213-60.894-9.1764 8.7128-2.2995 4.81l0.23467-0.81004 2.0651-4zm217.24 3.3011c-7.7849-5.1262 4.7224 6.4789 0 0zm41.842 0.0323c-3.1647-6.996-1.1541 7.0428 0 0zm3.5178-0.6667c-3.2883-4.7497-1.6126 4.8749 0 0zm-205.33-0.58798c-3.1115-4.5797-3.8402 2.5408 0 0zm181.33-0.74536c-9.7713-5.5906 3.3057 5.2514 0 0zm55.075 0.47526c-1.1473-9.2379-15.889-0.43325 0 0zm-28.408-1.8086c-9.5194-13.752-24.014-3.8203 0 0zm5.3334 0.74536c-3.1116-4.5796-3.8403 2.5407 0 0zm-54.123-4.0787c-9.278-10.428 6.8102 11.336 0 0zm26.551 1c-19.35-13.68-28.975-13.128-11.623-0.96392 2.1163 1.2732 16.159 5.4444 11.623 0.96392zm-19.095-4.3333c-3.306-5.2514 9.7712 5.5904 0 0zm52 5.3333c5.9815 6.508 3.2365 3.1886 0 0zm-220-1.3333c-1.6126-4.8749-3.2883 4.7497 0 0zm193.33-0.66666c-14.882-7.4732 8.3776 7.1255 0 0zm72.509-0.0692c-1.3217-4.9039-2.7442 6.7879 0 0zm78.09 0.69416c-11.562-1.6881-6.2613 3.8868 0 0zm-422.68-9.4981c3.5047-25.163-9.2559 27.332 0 0zm264.08 5.7031c-3.2736-7.6822 8.7124-7.7456-3.2551-8.7654-14.29-13.026-4.4317 11.407 3.2551 8.7654zm34.667 0.5821c-3.1117-4.5798-3.8404 2.5408 0 0zm9.3333 0.0768c-5.1934-3.7652-4.9588 2.1072 0 0zm67.906-5.1555c-5.2848-3.155-1.0115 12.001 0 0zm-135.24 3.0072c-9.327-8.7576-2.8344 2.2117 0 0zm-213.34-1.3405c-1.6124-4.8748-3.2884 4.7497 0 0zm82.811-1c-0.96685-22.62-17.088-36.175-8.9215-4.9318-1.9382-23.22 6.143 11.262 8.9215 4.9318zm282.52-0.33334c-5.1257-4.7803-3.4174 4.9385 0 0zm10.884-1.0574c-11.057-3.8977-11.332 6.8035 0 0zm12.449 1.0574c-24.041-6.2631 2.6318 5.7409 0 0zm-353.74-4.9746c-2.2112 1.7068 1.9738 8.788 0 0zm177.08 1.7259c-20.716-13.532 9.3251 11.342 0 0zm185.15 1.2487c-1.1538-7.0428-3.1648 6.996 0 0zm-221.48-8.424c-19.383-19.377 8.651 0.3996 4.0866 5.462zm16.152 5.7719c-6.905-8.3922-2.6039 6.1737 0 0zm59.512 1.4743c-5.1934-3.7653-4.9588 2.1072 0 0zm28.344-3.713c-24.353-11.718-38.897-6.5748-19.011-1.663-34.88-6.0863 56.545 12.264 19.011 1.663zm-63.555-2.0981c-10.383-9.8928 25.819 5.5121 8.5444-4.3632-12.302-1.7308-36.562-25.545-50.65-29.315 3.0159 9.6774 38.805 36.46 42.106 33.678zm-6.1222-5.0111c-2.1441-7.4371 8.3276 7.7869 0 0zm44.667 8.6667c-7.0617-4.8712 1.4948 4.5952 0 0zm67.333-0.74536c-4.1415-4.8354-2.5302 6.7138 0 0zm-306.71-3.588c-2.1439-11.478-1.6189 13.84 0 0zm13.154-4.3361c0.41229-13.754 6.6018 9.574 1.0218-16.112 4.4817-20.073-15.91-13.191-4.611 13.444-0.54041 4.6806 4.5514 21.668 3.5891 2.6686zm278.73 6.7388c-25.874-7.9847-21.684 0.93643 0 0zm48.042 0.11413c-12.854-3.756-11.717 2.0989 0 0zm-118.92-1.6557c-4.9086-1.5121-2.4494 2.3221 0 0zm-41.438-2.9722c-19.798-10.256 9.0623 7.9481 0 0zm-171.94-3.8635c-2.2112 1.7068 1.9738 8.788 0 0zm215.26 2.2636c-20.346-7.1112 10.31 10.341 0 0zm111.01 1.1592c-6.9586-1.4042-4.738 3.9089 0 0zm-141.86-0.28483c-4.3168-6.1759-4.696-1.044 0 0zm106-0.82992c-7.701-5.4134-2.0763 4.2218 0 0zm16-3.4582c-18.685-7.921-80.641-14.811-29.554-2.1846 3.643 0.8135 53.708 9.7164 29.554 2.1846zm-33.324-5.8599c3.3744-2.4384 5.3084 4.2952 0 0zm-150.88 5.9272c-4.2721-5.2505 1.4587 6.6108 0 0zm129.3-3.1146c-11.897-11.692-4.027 4.5289 0 0zm8.5437 3.0332c-4.9088-1.5122-2.4493 2.3221 0 0zm53.694-1.4916c-43.54-21.05-16.111-1.1012 0 0zm-78.333 0.0808c-7.3424-2.1641-1.3325 2.3337 0 0zm-261-7.1296c12.992-30.611-8.4155-4.6335 0 0zm3.7913 4.6218c-4.2721-5.2505 1.4587 6.6108 0 0zm167.43-0.9425c-8.6478-16.776-34.159-35.495-55.566-54.59 12.745 18.726 43.376 48.313 55.566 54.59zm-15.018-13.888c-7.3653-13.144 9.465 10.549 0 0zm103.13 14.032c-18.099-3.9237-76.673-11.526-24.423 0.64238 8.0678 0.74725 16.418 0.64937 24.423-0.64238zm-221.87-3.2774c-5.1854-6.1317 2.0474 9.2406 0 0zm155.2 3.0324c-6.8195-7.5519-9.9889-7.9865 0 0zm-209.56-10.899c-1.7428-10.481-3.1139 24.382 0 0zm225.56 4.1248c-5.2263-6.1755-5.7861 6.7761 0 0zm52 0.54184c-11.702-4.7195 2.3226 4.5361 0 0zm4.4601-0.72417c-4.272-5.2506 1.4586 6.6108 0 0zm40.022 0.0575c-1.9601-7.1017-6.0707 6.3353 0 0zm-159.1-4.5762c-12.423-21.146 6.8822 19.097 0 0zm180.93 3.104c-4.9086-1.5121-2.4494 2.3221 0 0zm-232.29-5.1944c7.9232 2.0632-10.845-46.003-6.5799-9.1262 3.5546 19.159 8.3626 6.0436 5.9019 7.5962zm76.236-5.6296c-16.838-23.863-25.358-15.495-1.4456 2.3958 13.373 14.28 9.3986 3.6845 1.4456-2.3958zm97.03 7.7218c-1.1623-6.2833-9.8209 6.0008 0 0zm24.362 0.43564c-4.9088-1.5122-2.4493 2.3221 0 0zm-33.804-2.8135c-10.981-5.3242 4.8524 6.0954 0 0zm-35.835-1.7143c-7.0616-4.8713 1.4946 4.5952 0 0zm-154.72-10.228c-4.4117-22.882 1.4662 22.438 0 0zm10.789-4.1051c-15.815-66.666-4.2679 28.101 0 0zm-74.074 7.0787c-3.1116-4.5796-3.8403 2.5407 0 0zm66.534-7.7454c-1.7868-17.949-0.97787 23.479 0 0zm27.024 0.0245c-3.9153-1.6346 4.1902 9.2441 0 0zm134.44 2.4643c-5.1934-3.7653-4.9588 2.1072 0 0zm-197.77-3.1555c2.8603-22.86-4.5399-11.423 0 0zm170.28-3.7359c-11.889-11.165-16.536-1.5062 0 0zm-228.19-2.557c-1.304-9.5858-2.4738 11.314 0 0zm17.802-15.031c-8.8918 15.904-7.4694 29.331 0 0zm59.24 11.324c-0.78039-6.7216 2.189-4.6515-12.33-20.306 4.5792 9.7363 6.1076 25.665 12.33 20.306zm122.64 6.2671c-16.859-32.9-38.746-53.918-58.804-83.267 13.014 36.645 35.267 45.955 44.078 68.703 21.075 16.195-14.439-0.41914 14.725 14.564zm-135.09-3.5171c-2.2861-2.2924 1.1511 7.4541 0 0zm2.6389-2.75c-2.3336 1.3326 2.164 7.3424 0 0zm115.78-2.3333c-14.431-17.699 12.082 20.068 0 0zm17.728 2.7273c-6.8722-7.8364 4.8924 8.7667 0 0zm-22.395 0.0557c-0.42206-20.635-48.029-53.599-18.954-16.244 5.47 3.4359 12.888 17.096 18.954 16.244zm-45.142-10.421c-11.326-32.498-36.416-31.555-6.8577-3.0288 2.1265 0.37309 13.929 20.194 6.8577 3.0288zm31.809 7.1344c-4.3168-6.1759-4.696-1.044 0 0zm41.835-1.7823c-13.978-5.9089 5.5256 6.6831 0 0zm-48.773-1.6536c-6.8722-7.8364 4.8924 8.7668 0 0zm78.938-2.7273c-5.2043-4.8708-5.2042 4.8709 0 0zm-136.08-9.9167c-11.936-24.116 8.0087 27.328 0 0zm114.65 5.1172c-14.186-13.028-57.026-40.283-27.813-15.546 16.648 3.7436 21.216 21.207 27.813 15.546zm-30.566-17.946c3.8404-2.5408 3.1117 4.5798 0 0zm-127.78 9.9348c2.9721-28.7-8.1898-2.6492 0.1891 10.147zm32.515 2.4772c-9.7551-60.232-10.806 22.755 0 0zm-86.933 2.6667c11.87-30.305-8.1205 8.5189 0 0zm18.213-1.729c0.93559-12.543-5.7797 17.861 0 0zm219.98 4.0623c-19.977-3.8276 10.163 4.079 0 0zm-18-4.073c-28.979-11.783 14.727 10.792 0 0zm-31.333 0.78653c-6.0169-5.6542-5.5-0.59113 0 0zm49.333-0.94972c-29.945-14.77-6.6678 1.9219 0 0zm-163.12-8.0972c-2.3336 1.3326 2.164 7.3424 0 0zm30.372-4.6667c-0.37792-16.861-31.767-44.229-10.866-11.953 3.5507-1.5496 13.722 28.493 10.866 11.953zm38.807-0.71847c-1.4299-19.097-45.604-50.474-11.9-31.98-9.0691-39.904-33.748-8.3636-23.091-9.4556 7.3638-11.558 20.838 63.638 13.74 19.369-3.2119-6.1184 19.111 31.191 21.252 22.066zm18.548 1.8106c0.0104-6.1805-3.5871 4.3567 0 0zm-153.99-9.2445c-6.2564 4.5622-2.463 9.9101 0 0zm122.71 6.4857c-3.2885-4.7497-1.6124 4.875 0 0zm-88.178-12.667c-2.7856-15.034-2.649 30.842 0 0zm152.18 10.83c-4.3168-6.176-4.6959-1.0439 0 0zm-125.25-14.616c-7.1671 10.4 7.3931 17.261 0 0zm-50.842 0.45268c-1.3928-10.297-6.564 24.202 0 0zm164.14 5.6667c-24.673-32.411-14.527-9.5786 0 0zm7.9522 3.1632c-4.3168-6.1759-4.6959-1.0439 0 0zm-22.663-6.1565c-1.5332-17.12-15.819-35.131-3.4944-3.8269-1.7872-0.8999 5.8783 13.568 3.4944 3.8269zm-115.88-8.9727c-5.4275-1.6222 4.2917 17.954 0 0zm28.986 3.2993c-10.173-30.424-2.5883 9.8559 0 0zm105.55 3.1519c-6.402-13.419-16.846-22.53-4.3217-3.3054l3.7459 4.4868zm-177.42-8.8186c-8.8399 4.6101 0.092 10.075 0 0zm31.964 0c-9.9056-6.2708 0.98675 18.433 0 0zm131.62-6.8821c-7.1493-10.679 5.63 14.891 0 0zm-106.62 0.27296c-8.5927-8.7522 2.5025 10.001 0 0zm6.9059-2.3908c-3.4521-37.076-10.222 6.0445 0 0zm18.888 0.7937c-7.8241-26.222-12.281 4.1801 0 0zm-37.22-5.9335c-4.2712-8.8146 2.7722 13.023 0 0zm42.368-8.1248c-45.921-57.602-0.60428 25.033 0 0zm65.519 3.5979c-7.6106-5.5126 4.4918 8.6237 0 0zm-146.67-2.1574c-4.6274-2.2985-2.2002 6.2249 0 0zm86.422-0.32368c-10.695-10.849-6.8443-1.7924 0 0zm-39.755-6.7736c-3.1114-4.5797-3.8402 2.5408 0 0zm45.668-5.4566c-10.025-14.701-32.389-26.304-20.314-26.997-23.606-15.47 13.931 43.778 20.314 26.997zm-27.002-24.622c2.3823-7.6127 2.2872 7.3182 0 0zm78.832 26.311c-4.4314-3.4509 4.2162 7.2726 0 0zm-9.459-0.90352c-8.4526-12.334 3.5055 9.5607 0 0zm-101.8-4.3242c-2.2861-2.2924 1.1511 7.4541 0 0zm22.422-1.0833c-1.6125-4.8749-3.2884 4.7497 0 0zm-69.837-7.5667c-4.8577-6.1022 3.6191 9.8375 0 0zm151.27-1.4651c-6.7632-6.0626 6.5503 9.969 0 0zm-131.7-4.6349c-10.48-30.726-1.0401-23.916-27.683-44.117 11.173 13.92 23.73 46.76 2.6147 11.616-18.782-16.702 21.402 45.951 17.389 19.757 8.8082-0.7733 4.8334 21.548 7.6788 12.743zm-21.268-7.1273c-11.694-18.678 9.3814 23.834 0 0zm153.55 2.1662c-8.2438-34.399-8.5736 15.752 0 0zm-160.87-0.70563c-6.7498-10.057-10.139 5.8669 0 0zm151.98-0.0575c-4.272-5.2506 1.4586 6.6108 0 0zm-3.1268 0.22072c-4.3168-6.1759-4.696-1.044 0 0zm-40-6.8299c-5.5952-10.734-19.596 7.3122 0 0zm29.333-2c-7.2306-9.9008 0.96373 9.9508 0 0zm-143.59-4.6499c-8.7516-15.164 6.7269 16.079 0 0zm40.054 2.5924c-4.2721-5.2505 1.4587 6.6108 0 0zm-37.793-5.9425c-16.502-19.122 13.413 18.92 0 0zm98.007 1.3415c-11.912-10.245 7.1448 11.311 0 0zm9.9926 1.8966c-3.7485-8.8226-5.4386 1.3542 0 0zm-17.333-1.7621c-5.1358-7.002-2.8154 3.121 0 0zm-60.512-14.559c-7.6992-4.6449 6.2218 10.642 0 0zm-45.352-3.9167c-13.882-22.424 4.7103 12.94 0 0zm38.45-0.98702c-7.6309-7.4697-7.4712-29.832 6.5407-14.64-7.4906-9.787 18.277-1.6062-3.3135-18.206-16.757 0.45623-41.807-4.2909-15.262 12.354 1.6453 13.363-26.199-4.551 1.4898 16.242-3.1554 3.4718 21.146 13.363 10.545 4.2509zm-11.253-12.721c5.2055-4.3474 5.344 2.3668 0 0zm-1.9143-18.234c-1.6682-5.8357 4.6301 6.2336 0 0zm7.2476-0.46953c3.8403-2.5407 3.1116 4.5796 0 0zm17.499 31.723c-4.4314-3.4509 4.2162 7.2726 0 0zm-3.4669-7.544c-9.3696-10.157 1.2759 10.538 0 0zm-34.546-2.3862c-23.194-15.563 12.815 15.946 0 0zm40.862 0.15259c-10.019-5.2344 4.749 9.5162 0 0zm2.3185-5.8669c-3.2885-4.7496-1.6124 4.8749 0 0zm52-5.1907c-4.0832-6.8362-3.6474 4.0489 0 0zm-110-1.476c-4.7844-5.0763-1.6559 5.2565 0 0zm-12.515-6.1096c-10.12-7.4366 9.1867 12.505 0 0zm25.426-0.84596c-5.8665-1.1404 4.1066 6.0383 0 0zm-29.964-5.0444c18.931-5.498-30.157-16.924 0 0zm-3.6137 0.80932c-5.2055-4.3475-5.344 2.3668 0 0zm30.788-3.373c-10.394-2.2765-0.0838 4.1055 0 0zm18.812-1.7029c-7.6958-3.1059 3.7638 6.9248 0 0zm91.542 1.4538c-11.38-4.3451-0.40412 4.559 0 0zm-69.142-0.42518c-3.8119-7.6599-15.643-4.5264 0 0zm-86.1-3.2362c-14.247-6.7991 7.3443 7.5495 0 0zm5.6775-0.4424c-2.4675-2.7161 1.3385 7.804 0 0zm83.756 1.5833c-4.7844-5.0763-1.6558 5.2565 0 0zm-10-5.3333c-3.2884-4.7497-1.6124 4.8748 0 0zm-128.07-4.1899c10.791-9.3002-23.23 11.156 0 0zm134.74 2.1899c-9.5402-6.3962 3.194 6.6712 0 0zm-20 0.0787c-3.1115-4.5797-3.8402 2.5408 0 0zm-50.52-5.2357c-13.977-9.5922-0.17935 8.2085 0 0zm134.52 2.633c-5.6206-4.4018-3.3528 2.359 0 0zm-199.16-3.0504c12.113-5.7582 1.4369 4.1228-5.713 2.0864zm45.83-0.42567c-8.4942-15.453-40.936-10.067-16.402 0.0486 5.2792 0.20079 11.312 2.5765 16.402-0.0486zm-29.333-2.6436c-14.217-2.832-7.7654 4.6209 0 0zm174.19-2.0231c-8.6474-7.6572 3.5274 7.3455 0 0zm-84.56-4.5915c-28.045-26.259 9.0795 17.144 0 0zm-26.964-1.6282c-10.02-16.543-12.468 5.3431 0 0zm-11.942-2.3394c0.0424-13.88-5.6198 7.4567 0 0zm12.402-2.1651c-4.2721-5.2505 1.4587 6.6108 0 0zm73.846 1.252c-4.9088-1.5122-2.4494 2.3221 0 0zm-110.97-3.8198c8.5231-11.135-16.314 9.6196 0 0zm58-2.5989c11.482-24.046-8.8886 8.8539 0 0zm22.667-3.4424c-3.2185-9.2684-3.2185 9.2684 0 0zm15.393-9.2374c-10.772-10.509-0.19936 5.6152 0 0zm-81.094-3.1242c-1.1413-8.9096-4.2482 12.764 0 0zm63.834-1.7163c38.623-3.5254-37.444 1.2506 0 0zm-20.211-2.6311c6.1002-7.1978-11.72 6.5324 0 0zm380.35 785.01c-5.2593-13.908 8.3578 7.9932 0 0zm36.222-2.6362c-4.4601-6.3657 8.113 7.856 0 0zm10.267-1.0397c-7.3965-16.349 9.4758 10.896 0 0zm-54.818 0.61766c-1.3266-7.1517 6.2092 5.7328 0 0zm50.163-2.3761c-5.7618-11.964 7.2512 8.006 0 0zm-48.901-1.7292c-6.3111-8.6972 10.211 8.913 0 0zm-36.308-9.5586c-9.3114-17.671 10.362 10.34 0 0zm79.768-2.3261c3.8404-2.5408 3.1116 4.5798 0 0zm148.74-4.218c-14.182-31.109 16.345 6.808 0 0zm-286.87-2.7033c-7.9522-9.3758 9.8785 9.706 0 0zm28.205-1.7091c-5.0184-7.0992 9.3064 7.2243 0 0zm108.59-39.37c3.8402-2.5408 3.1114 4.5797 0 0zm347.33-31.322c2.4559-53.137 2.4382 54.705-1e-4 0zm-346.79 16.4c-7.9522-9.3758 9.8785 9.706 0 0zm205.17-3.8211c-19.942-17.691 1.8802-6.6817 0 0zm126.5-11.245c-6.5132-30.968 9.6096-6.4138 2.8088 9.5738zm7.4151 8.2902c-5.8003-20.733 5.1699 5.7279 0 0zm4.5105-4.2243c-7.2353-9.4402-12.588-29.721-1.8428-38.779-7.123 15.564 8.94 32.213 1.8428 38.779zm1.3008-34.778c0.85766-5.1386 1.3525 6.0688 0 0zm-17.083-6.2222c-12.396-21.394 14.291 8.6402 0 0zm25.083-15.111c0.85766-5.1386 1.3525 6.0688 0 0zm-0.4664-4.0278c-12.852-35.013 2.0462-29.413 0 0zm-614.14-17.861c-6.7038-19.126-25.649-98.923 0.837-44.253 14.279 27.954 10.427 31.785 4.906 46.158l-3.3548 1.868zm75.117-10.755c-1.3266-7.1517 6.2092 5.7328 0 0zm530.81-2.1871c-1.6682-5.8357 4.6301 6.2336 0 0zm-10.456-22.058c-19.904-27.089 17.944 19.158 0 0zm-586.85-0.82105c-1.1262-7.8157-4.0551-3.4027 0 3.9e-4zm575.83-5.601c-1.6288-6.6873 4.3397 5.078 0 0zm-675.02-3.2446c1.4538-6.3322 0.78039 8.0318 0 0zm666.51-29.798c-5.7618-11.964 7.2512 8.006 0 0zm-7.7679-5.8685c-22.052-32.013 12.99-8.4698 0 0zm-676.16-3.1293c-0.022-22.849-27.42-28.144-10.534-41.746 6.7539 4.0444 26.826 11.744 11.65 15.67-7.5691 4.3325 15.726 20.392-1.116 26.076zm17.262-8.3422c-2.3885-13.171 5.9638 8.6476 0 0zm4.7614-1.8388c-1.3028-18.548 6.2227 12.557 0 0zm-29.863-4.3563c1.2714-8.7051 0.82197 10.361 0 0zm33.75 1.0575c-1.6682-5.8357 4.6299 6.2335 0 0zm45.914-10.391c3.0661-16.21 3.0661 16.21 0 0zm-61.228-2.7778c0.85765-5.1386 1.3525 6.0687 0 0zm651.46-6.0407c-16.42-22.757 19.108 21.783 0 0zm-641.15 1.2629c7.1479-13.721 0.6921 12.492 0 0zm17.894-2.4444c1.0724-8.3445 1.0724 8.3445 0 0zm-10.882-0.0389c-7.3387-17.547-9.3729 12.119-7.6548-19.611-18.043 16.478-7.7809-22.242-3.9709-5.0163-0.74872-17.134 14.54 11.441 19.532 24 0.24816-6.9645-6.5258 2.9983-7.9063 0.62768zm-49.322-11.405c0.85765-5.1386 1.3525 6.0687 0 0zm-4-2.6667c0.85765-5.1386 1.3525 6.0687 0 0zm6.6666-1.3333c0.85781-5.1386 1.3526 6.0688 0 0zm85.333-6.6667c0.85765-5.1386 1.3525 6.0687 0 0zm-1.3334-5.3333c0.85781-5.1386 1.3526 6.0688 0 0zm-56.339-3.6566c-0.52775-8.7756 2.6208 7.9402 0 0zm1.5673-7.5656c6.3393-9.5682-3.2694 9.4636 0 0zm600 1.3333c-3.8187-4.8222 7.4113 4.3672 0 0zm-605.23-6.1111c0.8578-5.1386 1.3526 6.0688 0 0zm4.5614-0.55559c3.2884-4.7497 1.6124 4.8748 0 0zm575.33-16.83c2.2287-4.6082 5.7475 7.2269 0 0zm-14.667-41.915c3.8403-2.5407 3.1116 4.5796 0 0zm-547.25-33.796c9.79-29.437-4.0955 22.76 0 0zm456.75-22.959c-4.2754-14.086 6.6542 11.084 0 0zm-10.833-7.0418c7.0502-2.2883 7.0356 4.1067 0 0zm-206-83.68c-5.8693-6.1703 12.628 5.9127 0 0zm-23.979-4.411c0.78185-7.1956 7.6125 4.5144 0 0zm-65.354-28.034c-8.907-14.087 13.307 13.275 0 0zm-11.156-32.14c-8.7916-15.641 11.706 13.379 0 0zm4.1282-5.9556c-9.4831-15.795 11.472 15.017 0 0zm-16.886-0.18042c-1.6682-5.8357 4.6299 6.2335 0 0zm-5.1778-6.448c-4.9694-15.428 9.5226 14.459 0 0zm11.759 2.0571c-4.9168-9.6548 8.8621 9.7906 0 0zm2.7893-2c-4.3764-11.832 8.1422 11.968 0 0zm-9.3232-1.1985c-7.8094-19.678 8.9298 8.9587 0 0zm14.352-0.1272c-13.024-14.191 7.4046 0.14793 0 0zm-11.308-6.9138c-7.6935-17.875 12.907 4.9232 0 0zm-4.3991-2.7605c-15.827-5.9093-27.263-40.544-4.6158-8.1024 0.0427-2.3788 13.762 12.181 4.6158 8.1024zm3.9109-11.385c-15.788-10.647-30.382-51.649-8.6887-14.948 11.68 4.1278-47.948-54.27-5.4558-21.028-11.628-19.832-21.4-27.274-37.278-42.267-5.4101-5.7471-21.698-14.784-32.626-32.55-11.934-18.771-71.067-46.45-108.2-49.238-19.178 2.1826-18.103-3.1603-34.205 8.0832-5.4719-5.1799 3.8314-5.2796 11.909-11.219 16.36 1.4836 21.153-15.734 55.648-9.4149 21.242-11.263 56.183 30.832 69.042 29.331-14.482-17.23 38.23 30.026 32.022 16.745 21.262 11.165 39.912 73.145 38.645 64.684-10.312-2.1301 7.9687 24.445 0.93384 3.2785 15.836 20.021 12.943 31.469 11.943 34.821-4.8436-5.1708 11.592 12.313 1.1646 7.0615-1.3918 5.9532 21.722 40.587 5.1447 16.662zm-11.355-28.203c-3.1117-4.5796-3.8402 2.5407 0 0zm4.1654-5.1009c-4.4314-3.4509 4.2162 7.2726 0 0zm-22.372-39.035c-4.272-5.2506 1.4586 6.6108 0 0zm-3.1268-15.779c-4.3168-6.1759-4.6959-1.0439 0 0zm-61.333-40.129c-16.076-13.926-7.078 2.8694 0 0zm-1.3333-9.2043c-4.317-6.1759-4.696-1.0439 0 0zm-4-6.6873c-5.6207-4.4017-3.3527 2.359 0 0zm-106.67-21.57c-6.9825 1.1847-7.2956 6.4071 0 0zm29.816-1.2395c-1.1538-7.0428-3.1648 6.996 0 0zm42.184 1.4888c-6.8267-4.107-9.2584 2.2404 0 0zm-56.361-1.6277c-4.9088-1.5123-2.4494 2.322 0 0zm9.9611-0.79445c-8.3524-3.1663 0.17496 6.0104 0 0zm171.55 163.27c-14.061-17.24 9.8307 5.9793 0 0zm-114.49-0.34151c5.1257-4.7803 3.4174 4.9385 0 0zm45.333-5.412c3.8404-2.5408 3.1117 4.5798 0 0zm52.011-10.255c-10.2-15.265 17.204 16.965 0 0zm-121.98-5.8471c2.943-12.071 1.4222 10.48 0 0zm-74.479-19.375c-4.1067-6.0383 5.8663 1.1404 0 0zm80.444-0.44444c3.4067-4.7834 3.4067 4.7834 0 0zm15.634-2.5895c0.0735-11.399 5.9658 8.7563-6e-4 0zm115.7-2.7439c-8.907-14.087 13.307 13.275 0 0zm-31.333-1.412c3.8404-2.5408 3.1116 4.5798 0 0zm17.945-20.01c-1.6289-6.6873 4.3398 5.078 0 0zm-233.06-10.134c-4.1066-6.0383 5.8665 1.1404 0 0zm159.11-38.506c-7.5164-6.5454 12.719 5.0064 0 0zm-62.665-3.1928c2.3367-7.0128 2.0726 4.8997 0 0zm-53.333-28.745c8.3277-7.7868-2.144 7.4372 0 0zm101.33-4.6667c-3.8186-4.8222 7.4112 4.3672 0 0z" clip-path="url(#clipPath230)" fill="#fff" stroke-width="1.3333"/>
</svg>
