<?xml version="1.0" encoding="UTF-8"?>
<svg width="250" height="250" version="1.1" viewBox="0 0 250 250" xmlns="http://www.w3.org/2000/svg">
 <defs>
  <clipPath id="clipPath230">
   <rect x="62" y="52.2" width="449" height="438" fill="#f00"/>
  </clipPath>
 </defs>
 <path transform="matrix(.593 0 0 .621 -58.2 -59.7)" d="m432 1123c19.4-39.3-16.2 20.2-3.68-14.2 24.5-19-6.02 33.3 24 5.56 21.7-9.27 62.2-25 55.7-45.1-18.9-15.1-29 18.6-53.7 6.45-19 6.26 34.2 5.47 1.57 9.46-29.5 6.12-59.5 0.875-89.9 4.47-26.7 5.19-45.7 1.59-44.3-11.9-34.9-6.27 15.3-3 21 6.2 21 0.27 24-4 39-1.15 18.7-6.03 22.9 3.94 38.8-5.96-3.55 6.21 13.6 6.19 25-1.74 7.28-4.1-9.96-0.55 12.2-7.3-2.33-15.3 15 10.7 24.3-10.3 10.3-11.1 39.4-48.8 8.63-15.6-30 14.1-10.7-16-1.93-11.1 16.5-0.912 40.6-18.3 55.2-37-2.62-13.3 7.62 21.5-3.79 6.69-7.34 14.9-21.4 20.6-33.5 36-0.951 18.6 6.27 16 9.31 29.8-2.44 8.35 12.6 5.15-7.56 22.2-23.5 12.5-50.6 31.2-76.3 34.4zm-57.3-38.6c-1.61-4.87-3.29 4.75 0 0zm18-2.14c-7.35-2.32-5.02 4.31 0 0zm-6.67-0.524c-3.41-4.78-3.41 4.78 0 0zm51.3-1.33c-1.61-4.87-3.29 4.75 0 0zm8.67-2.08c-4.09-4.73-0.786 6.57 0 0zm63.5-10.6c3.24-18.2-3.8 8.72 0 0zm-4.18-18c-11.2-10.1 5 9.73 0 0zm-8.67 0.745c-3.11-4.58-3.84 2.54 0 0zm2.14-5.72c-6.52-0.037 3.64 6.91 0 0zm4.53-5.14c-4.01-9.83-3.99 11.4 0 0zm-16.4-4.03c-4.91-1.51-2.45 2.32 0 0zm-44 67.5c-4.24-9.64 8.18 9.76 0 0zm27-1.25c2.34-7.01 2.07 4.9 0 0zm-10.8-7.75c-4.46-6.37 8.11 7.86 0 0zm12.1-5.33c-11.6-13.3 13 13.2 0 0zm8.3-3.02c-6.95-13.7 11 12.7 0 0zm2-3.76c8.91-23.4 17.4-4.04 0 0zm4.78-2.03c1.09-3.87-7.15 3.63 0 0zm-87.6 0.484c3.37-2.44 5.31 4.3 0 0zm12.7-0.997c7.14-8.23 9.24-2.21 0 0zm-73-5.31c-5.25-6.42 10 0.288 0 0zm170-0.36c3.37-2.44 5.31 4.3 0 0zm-80.7-1.19c2.2-6.23 4.63 2.3 0 0zm72.8-2.43c-1.67-5.84 4.63 6.23 0 0zm-111-1.39c3.9-9.75 1.03 6.98 0 0zm11.4-0.241c0.487-6.57 4.25 4.44 0 0zm134-7.92c-3.27-16 20.3 8.14 0 0zm-109 0.273c11.5-6.79 22.3-0.139 0 0zm155-3.24c-0.104-28 10.7 6.69 0 0zm5.18 0.183c10-41.5 12.1 8.8 0 0zm-107-1.39c1.61-4.87 3.29 4.75 0 0zm69.8-1.77c-0.528-8.78 2.62 7.94 0 0zm-21.5 0.901c2.49-9.93 14.7-10.2 0 0zm73.8-0.528c7.49-14.8 32.3-9.66 7-1.99zm-82.5-3.02c0.956-5.77 9.2 3.46 0 0zm3.24-5.75c4.86-10.1 19.5-12.9 0-3e-4zm11.8-3.27c5.58-9.99 8.06-13.2 4.96 1.01zm94.6-2.9c20.1-33 5.97 4.37 0 0zm-82.5-1c3.29-4.75 1.61 4.87 0 0zm21.3 0.448c-33.3-16 34.6-36.3 49.6-43.9 9.63-23 6.77-2.67 17.5-27.2 20.7 16.4 40.2 19.6 40 53.5-4.02 25.5-14.7-51.5-30-7.56-19.9 24.5-51.4 27.5-17.8-0.865-19.4 9.43-34.8 32.7-59.3 26.1zm54-9.7c-3.65-7.51-4.79 4.36 0 0zm2.67-2.75c-3.41-4.78-3.41 4.78 0 0zm3.33-2.67c-1.61-4.87-3.29 4.75 0 0zm-171 8.36c19.6-10.8 8.5 2.2 0 0zm76-3.03c-3.27-9.46 6.34 9.57 0 0zm9.33 1.48c5.14-7 2.82 3.12 0 0zm102-10.1c6.05-7.42-1.92 7.2 0 0zm-94.9-1.81c4.28-7.3 11.4 0.812 0 0zm30.5-16.6c13.3-6.9 11.4 4.77 0 0zm-49.2-1c-0.483-17.1 20 1.98 0 0zm60.7-0.448c5.62-4.4 3.35 2.36 0 0zm8.67-2.14c9-5 3.62 3.61 0 0zm-13.1-2c4.65-7.23 0.837 7.35 0 0zm-32-1.77c-7.16-27.2 26.8-27.5 19-11.7-7.47-30-17.2 13.5-19 11.7zm96.3-14.6c-4.12-6 7.44 7.1 0 0zm9.5-0.412c3.84-2.54 3.11 4.58 0 0zm-74.7-2.43c2.2-6.23 4.63 2.3 0 0zm23.1-6.1c3.47-4.77 2.03 6.32 0 0zm52.1-3.06c-8.96-13.6 14.2 16.6 0 0zm-89.9 0.042c0.702-8.09 6.2-7.81 0 0zm93.6-2.13c-22.4-25.2-15.2-18.4 3.69-2.94 7.57 3.52-2.77 9.59-3.69 2.94zm-56.4 0.419c-4.42-14.2-6.15-14.3-1.42-25.4 8.82 1.33 11-16.9 9.49 4.11 18.8-20.2-10.1 14.8-8.08 21.3zm-25.1-4.55c-6.76-4.06 5.91-16.8-2.19-24.2-0.265-24.8-3.25-43.4-37.8-46.3-16.5-17.3-23-30.1-17.7-26.5-5.14-23.1 19.2 17.1 11.6-2.52-22.4-25.8 40.1 46.7 29.1 21.2 26.4 17 19.5 11.8 27.3 32.6-20.3-17.1 12 27.8 10.9 12.7-4.03 26-13.9 43.9-5.59 7.27-16.3-4.49-7.16 22.6-15.6 25.7zm6.63-30.4c-1.57-6.89-1.83 9.26 0 0zm-3.22-6.48c-5.29-13.6-5.23 5.83 0 0zm4.32-4.55c-3.77 2.58-1.58 5.8 0 0zm-8.16-15.5c-2.47-2.72 1.34 7.8 0 0zm-5.32-3.02c-9.52-7.76 6.05 9.12 0 0zm-42.3-26.1c-3.29-4.75-1.61 4.87 0 0zm41.4 84.8c-3.29-12.1 6.29 8.53 0 0zm23.8-0.9c-2.26-13.1 7.38 10.4 0 0zm13.4-1.76c4.06-6.2 12.5-0.372 0 0zm10.1-2.46c9.06-23.5 1.6 7.11 0 0zm-32.7-4.78c4.95-4.02 3.34 4.14 0 0zm64-0.187c-16.8-10.5-16.8-24.3-24.6-37.3 7.71-1.33 30.8 17.2 19.9 27.1 2.43-2.26 14.9 15.7 4.69 10.2zm-14.7-18.7c-3.29-4.75-1.61 4.87 0 0zm18.7 12.2c2.2-6.22 4.63 2.3 0 0zm-24.9-5.83c-4.76-21.4 7.1 17.3 0 0zm-58.1-4.19c-8.06-14.7 8.64 4.4 0 0zm106-3.52c-34.2-25.1 10.6-6.92 0 0zm-5.42-10c-14.7-10.8 8.73 16.6 0 0zm-19.2 4.18c-23.8-13.8 2.96-2.06 10.5 3.99l-0.573 0.168zm-30.9-0.802c-10.2-8.4 13 7.72 0 0zm-71.9-3.65c-11.6-13.3 13 13.2 0 0zm45.3 3.27c-8.6-8.79 6.51-5.77 0 0zm61.9-5.76c-24.9-14.8-9.32-14.1 1.88-4.28 0.816 2.99 7.08 9.33-1.88 4.28zm38.2 1.11c-8.57-8.01-34-16.3-22.8-27.2-12.7-16.1-26-29.2-28.7-19.2 40.3 26.1-36.8 5.72-14.7-6.04 24.3 3.35 19.1-3.72 9.83-11.8 13.8 4.12-35.1-35-44.5-48.4-45.5-39.1-12.6 26 12.7 38.1 38.2 35.7-18.1 12.2-21.3 15.5-19.1-13.4-7.44-10.8 4.74-15.9-14.5 12.9-34.9-35.5-45.1-52.1-13.5-23.9-23.3-21.2-27.2-25.4 4.63 23.2 27.9 66.1 21.4 52.7-43-27.4 37.7 51.1 19.3 23.5 13.7 12.6 17 10.2 19.9 22.7 13.8 1.07-2.87-12.5 15.4 5.79 22.7 34.1-10.8 29.4-24.9-6.79-11.3-7.4-51.7-15.4-44.4-31.2-4.14-18.5-30.7-33.6-56.8-56.3-17.5 0.71-33.4-43.9-14.6-29.3-5.38-14.2-21.7-38-6.62-6.78-12.6-14.7-24-15.1-36.5-31.7-11.3-12.7 3.25-16.3-16.5-30.7-3.47 50.8-32.4-32.2-38.3-49.7-1.15-14 0.851-30.8 11.4-10.7-6.75-22.6-23.9-39.3-14.3-5.66 12.1 18.3-15.5 35.1-15.5 13.1-1.21-11-7.33-44.9-15.4-30.8-0.602 18.6 6.39 23.5 10.3 47.2-6.61-23.5-7.88-11.2-14.8-9.09-6.88 29.3-9.75-27.5-5.96-41.7-7.01-19.6-8.94-51.5-12.9-12.1-7.7 11.4 8.28 49.2-13 21-6-13.7 3.76-23.3-10.1-31.1-9.59 20.2 3.94-47.1 0.918-19.7 8.63 7.24 13.8-1.51 11.9-18.5-10.4-9.28 4.38-30.3 3.64-29.6 2.03 19.2 19.3-13.4 1.14-27.2-4.58 14.2-10.1-10.9-15.1-17.4-11.5 16.8-16.9 23.4-8.16 20.3-3.58 15.3 11.3 67.8 0.223 56-14.3 4.42 3.76 32.8-10.8 44 2.97 7.3-0.494 24-0.57 35.4-7.04-25.6-6.47-10.1-4.99 0.961-8.24-11.9-7.5-42.9-8.23-6.3-12.2 1.3-9.3 7.65-3.01 24.3-10-12.9-13.3-54.1-9.78-12.7-3.47 20.1-2.31-10.9-14.9-24.3-3.93-19 0.0496 39.9-7.69-7.73-15.1-6.02-5.29-35.8-13.7-48-4.6-32-9.81-79.2-6.29-102-6.12-31.8 20.9-78.1 16-90.8 14.4-14.5-7.66-15.9 5.72-40.7 1.55-11.4 14.3 4.77 13.9-24.4-3.88 26.4 2.08 27.5 5.86 7.48 7.83 8.01 18.5 1.38 17.1 10.9 8.25-10.9 15.1-4.46 18-18.9 15.3-24.9 13.6 27.8 29.7-4.19 27.2 15.4-12.7-52.5-1.52-16.7 11.3-7.69-5.89 24.2-7.81-6.16-4.48-13.8 5.37-30.4 17.3-23.5 10.1 25.8 1.54-18-13.5-22.8 19.8 12.5 1.77-33-9.48-12.8-24.4 5.04 33 34.8 3.94 24.9-12.2-13.6-2.38 6.53-19.7 6.7 14.9 14.8-9.35 20.6-0.933 26.3-24.4 19.3-2.48 3.41-6.67 14.9-11.7 2.23-32.2 20.1-39.3 13.8-2.51-15.9-17.4-39.4-22.7-48.1-11.9-7.02-22.1-23.8-11.3-3.13-7.95-15.5-27.5-38-21.9-34.7-19.4-20.7-92.5-0.689-40.7-37.1 16.7-2.56 55.7-36 52.5-20.7 4.72 14 4.04-11.4 12.4 0.654 17.5-11.1 50.6-17.1 70 0.763 21 16.1-8.58-3.64-6.61 20.3-12.9 27.2 20.7-30.3 32.7 0.156 31-1.35 15.7 21 31.2 13.1 16 12.6 18.8 17.8 8.79 21.5-3.1 1.67-16.3 27.4-5.44 34.5 5.08 9.01 14.2 0.468 19.5 15.9-1.89 14.9-22.9 25.3 8.44 40.5 32.3 33.9-8.38-23.1 1.67-7.5 19.7 6.43 46.1 53.7 25.2 7.37-12.8 3.96-45.9-39.2-8.51-11.5 23.2 9.64-7.29-0.722-4.03-6.52-13.9-21.3-14.4-20.4-25.2-41.4 20.3 3.14-26-22.9-2.14-26.8 15.9 13.3 39.5 20.4 41.3 38.2-17.2-14.2 14 53.4 17.3 44.4 20 31 1.68 11.7-0.132 6.27 0.772 25.8 15.8 7.39 26.2 35-9.98-24.3 18.5 4.35 6.8 2.25-3.38-8.94-0.544 25.8 7.17 16-5.64 14.7 17 8.51 8.14 2.85-7.48-1.19-11.7-29.3 8.33-2.19 53.5 36.3-43-39.4 2.04-5.54-29.2-26.5 12.3-2.3 1.72 2.32 17 10 71.2 58.7 25.4 22.2-19.5-4.51 11.6 9.47 19.6 19.6-14.8-11.2-51.6-20.5-14-5.4 19.2 12.3 3.24 12.5-24.5 0.27-8.91 3.05 60.9 18.9 37.9 19.9-24.3 0.746-49-25.9-63.6-27.5 22.4 6.55 37.4 17.8 34 22.3 11 12.8 66.3 11 55.9 10.9 44.1 11.7-14.1-1.05-9.29-4.45-32.8-16.8-3.29-18.6 9.84-14 20.7-0.425 69.6 27.3 22.2 12.1-56.9-5.85 88.1 17.8 37.3 20.9 23.2 3.33 31.5 5.07 43.7 4.67 33.8 9.47 7.97 4.92-13.1 13 32.6-8.24 50 0.633 78.7 12.3-37.3-6.41-9.56 0.921 13 5.7-8.79 8.95 26.4 7.52 29.8 19.1 28.3 4.53 0.149 15.5 34.9 22.5 34.1 15.4 59.4 27.3 74.3 57.1 9.81-1.07 50.8 38.5 39.7 34.6 3.6-7.72 48.9 63.6 19.4 28.6-18-14.4-40.3-44-56.1-48.1-7.58-12.6-4.84 11.9 2.5 8.04 11.7 11 11.6 2.65 12.5 21.9 14 3.3-5.39-13.1 14.6 0.734-10.6 6.45-25.6 0.715 0.271 10.2 6.76 1.63 19.1-0.852 21.7 12.7-5.2 1.93 27.9 13.4-3.6 8.82-1.15 2.97 20.3 11 15.2 18.8 15 4.01 20.5 20.9 6.21-5.49 6.14-31.1 12.7 33.4 27.9 35.6 14.9 14.2 8.06 37.2 2.76 2.87-17.9-15.1 14.7 35.5-11.5 2.2-26.8-49.1-9.54 24.9 11.2 25.1 10.3 16.8 35.1 51.1 11.8 12.6 8.88-4.17 21.4 41.6 22.1 53.8-6.45 12.1-9.32-17-10.6 8.69-15.9-25.9-36-63.1-38.2-84.2-7.94 2.25-1.89 9.42-10.6 4.91 3.23 24.9 30.1 55.3 27.3 71.2-25.3-45.1 10.3 37.9-25.2-3.27-16.7-13.5-61.2-94.8-37.9-34.2 8.66 19.5 67.2 72.3 21.4 43.3-19.1-7.44-40.7-45.8-19.5-7.05 19.6 23.4-32.7-25.1-13 8.01 9.32 22.4-22.3-12.3-10.5 14.4 0.908 5.65-8.14-4.14-2.57 7.39 5.4 25.1-28.8-26.3-12.7 3.84 6.63 19.4-16-20.2-3.4 6.78-19.6-9.6-6.37 7.53 10.3 19.6-17.2-6.9-47.3-23.7-17.8 4-15.6-9.53-18.6 5.18-24.5-13 7.97 21.1-16.4-16.4-0.421 16.7 9.36 14.3-24.4 18.6 13.4 25.5 25.9 10.4 45.6 39.8 3.38 24.3-16.4-0.105-81.3-17.1-69.1-10.2 21.9 13.9-32.7 22.8-11.3-2.59-15.2-1.55 1.25 29.7-13.5 11.9 5.52 11.2 6.53 33.1-3.44-1.15-8.87-5.36-4.43 31.5-20.2-6.5-20.8-24.1-60.5-49.9-83-47.8 11.1 25 40 27.4 56.3 48.3-9.99-3.6 42.8 44.4 10.5 39.3zm28.2-27.3c-4.43-3.45 4.22 7.27 0 0zm-88.8-22.3c-12.3-3.58 6.82 4.56 0 0zm119-3.67c-12-23.7-9.05-1.53 0 0zm-47.8-6.25c-3.11-4.58-3.84 2.54 0 0zm14.7-0.745c-9.77-5.59 3.31 5.25 0 0zm41.3 0c-5.13-4.78-3.42 4.94 0 0zm-63.9-3.2c-17.8-5.37 4.2 6.54 0 0zm31.9-6.83c9.43-10.4-32.4-3.32 0 0zm-53.5-2.62c-15-11.5-2.88 6.81 0 0zm21-0.411c-18.6-7.22 3.54 5.88 0 0zm113 1.05c-7.06-4.87 1.49 4.6 0 0zm-99.3-4.55c-11.9-11-27.1-14.4-5.33-2.98zm-57.3-9.45c-10.9-7.74 1.83 7.1 0 0zm17-0.139c-4.91-1.51-2.45 2.32 0 0zm-24.3-3.2c-12.6-10.1-4.61 1 0 0zm61.7-3.93c-6.87-7.84 4.89 8.77 0 0zm38.9 1.27c-3.29-4.75-1.61 4.87 0 0zm21.3 0.83c-4.32-6.18-4.7-1.04 0 0zm-236-1.26c-6.82-7.55-9.99-7.99 0 0zm210-2.23c-7.06-4.87 1.49 4.6 0 0zm62-0.503c-4.32-6.18-4.7-1.04 0 0zm-101-3.5c-7.38-18.5-11-9.5-0.0659 2.52zm-73.3-3.55c-38.2-25.7-0.675 6.97 0 0zm101 2.22c-3.29-4.75-1.61 4.87 0 0zm-57.3-1.33c-3.29-4.75-1.61 4.87 0 0zm48.7-3.91c-6.21-5.73 1.33 7.15 0 0zm44.3-1.76c-1.63-11.2-1.5 13.6 0 0zm-76.1-2c-0.687-9.28-1.91 12.1 0 0zm-174-3.16c-5.61-6.59 6.33-16.4 2.9-11 1.77-5.76-33.4-57.7-50.4-74.8-8.31-26.5-81-68.8-37.3-21 5.4 12 44.7 38.2 31.3 44.2 9.63 8.67 23.6 27.3 31.1 42.8 7.69 1.65 19.2 26 22.3 19.8zm168-1.46c-5.83-1.18 4.13 6.03 0 0zm27.2-2.08c-6.67-6.11 6.93 9.58 0 0zm-30.8-3.08c-6.03-2.54-0.427 6.53 0 0zm9.26-1.78c-8.48-9.61 0.843 6.37 0 0zm137-5.14c-10.4-11.9 8.86 13.2 0 0zm10.4-2.3c-11.3-13.1 9.4 13.9 0 0zm-169 2.14c-5.62-4.4-3.35 2.36 0 0zm-29.3-4.81c-6.94-5.26-4.18 4 0 0zm57.3-0.46c-5.2-8.22-6.55-1.59 0 0zm15.6-0.346c-4.91-1.51-2.45 2.32 0 0zm-21.6-1.86c-7.06-4.87 1.49 4.6 0 0zm-66-3.33c-9.58-7.53 4.43 7.09 0 0zm99.3-3.41c-8.27-2.15 1.01 11 0 0zm52.8 1.08c-7.88-4.3-0.261 8.51 0 0zm70.5-0.2c-37.2-17.7-10.5 0.122 0 0zm-13.9-2.13c-7.06-4.87 1.49 4.6 0 0zm37.1-0.724c-4.27-5.25 1.46 6.61 0 0zm-120-0.575c-9.28-8.55-10.3-3.82 0 0zm-140-2.37c-11.3 1.97-36.6-31.6-38.7-23.7-7.77-3.6-13.1-26-16-5.92-9.55-17.2-13.3-34.9-24.6-13.8 18.4 7.37 40.2 34.8 66.8 39.5 1.61-4.41 10.2 12 12.5 3.98zm66.5-0.267c-6.17-6.26-9.52 6.71 0 0zm93.8 0.542c-4.27-5.25 1.46 6.61 0 0zm-189-2.62c-5.98-13-0.462 5.82 0 0zm202-4.8c-9.66-7.23 8.65 13.5 0 0zm-105 2.82c-3.29-4.75-1.61 4.87 0 0zm301-5.83c-18.5-28 1.32 12.6 0 0zm-218 0.246c-4.87-2.87-3.93 6.84 0 0zm205 0.254c2.43-19.4-14.9-38.5-2.23-5.33-4.52-1.6 4.29 14.1 2.23 5.33zm-188-0.444c-5.21-6.63-0.294 5.88 0 0zm10.6-3.19c-6.52-0.0308 3.63 6.9 0 0zm-133-3.03c-2.64-3.82-3.18 12.8 0 0zm274 1.8c-2.9-25.6 5.53-0.473 4e-4 3e-5zm-419-1.99c-25.4-26.3 6.81 14.3 0 0zm268-0.0356c0.685-33.1-16-5.5 0 0zm-191 0.228c-7.06-4.87 1.49 4.6 0 0zm108-3.93c7.76-25.4-9.43 15.7 0 0zm-38.8 0.543c-4.27-5.25 1.46 6.61 0 0zm-52.2-0.984c-16.3-22-40.2-73.4-52.1-77.7 3.01 13.4 23.5 32.1 23.2 51.4-20-12.7 13 24.9 29.7 27.6l-0.751-1.31zm78.5-1.81c3.65-14.1-6.15 12.6 0 0zm174 2.25c-11.3-10.7-6.41-1.92 0 0zm-134-17.9c-21.7 14.4-14.9 21.6 0 0zm13.2 7.87c-6.88 3.19 1.21 8.89 0 0zm124 4.05c-10.7-4.75-8.09 1.18 0 0zm20.2 1.36c-3.11-4.58-3.84 2.54 0 0zm51.3-2.25c-2.27-5.79-35.8-62.5-19.3-49.2-10.9-16.9-19-69.7-32.3-63.1 19.6 13.9-4.21 19.2 18.3 46 9.68 24.8-27.3-10.1-9.03 21.7 17.9 6.2 27.8 39.7 42.3 44.6zm-13.9-18.5c-4.25-11.7 7.1 8.67 0 0zm50.7 16.8c-6.69-19.6-8.85-0.441 0 0zm-312 0.191c-9.68-12.6 0.203 9.78 0 0zm141-2.65c-10.6-11.5 9.38 12.6 0 0zm-291-0.133c-4.32-6.18-4.7-1.04 0 0zm17.7-8.05c-12.6-26.8 15.1 18.5-2.01-15.6-8.26-8.96-52-55.8-41.6-33.9-6.8 0.701 1.82 28.2 23.1 38.5 7-1.32 29.1 34 20.5 11zm119 6.11c-8.09-9.01 1.82 8.14 0 0zm118 1.25c-5.14-7-2.82 3.12 0 0zm16.2-17c-9.34-18.2-24.1-41.3-6.63-9.39 5.96 12.1 19.3 38.3 6.63 9.39zm22.5 13c-8.45-12.3 3.51 9.56 0 0zm-31.2-4.96c-6.99-11.1 6.2 14.3 0 0zm-218 1.49c-4.27-5.25 1.46 6.61 0 0zm240-2.84c-4.86-6.1 3.62 9.84 0 0zm-44.2-3.23c15.9-26.5-13 10.3 0 0zm-45.7 1.21c-2.47-2.72 1.34 7.8 0 0zm13.9-14.2c-3.58-11.5-17.5 35.1 0 0zm-23.4 7.44c4.78-17.4-13 23.6 0 0zm-11.2 1.89c-12.4-15.5 4.04 9.42 0 0zm-116-2.83c-2.17-18.7-5.63 4.68 0 0zm341-1.78c-4.89-1.92 3.63 8.88 0 0zm48.2-1.98c-4.98-3.9 0.131 11.7 0 0zm-87.4 0.775c-2.47-2.72 1.34 7.8 0 0zm-210 0.398c-7.46-12.8-6.06-5.7 0 0zm109-2.67c-10.3-3.66-15.2 5.17 0 0zm102-5.22c-7.63-5.31 6.23 12.2 0 0zm-257 3.25c-4.32-6.18-4.7-1.04 0 0zm-191-6.16c-15.5-17.9 12.7 18.8 0 0zm503 4.14c-5.14-7-2.82 3.12 0 0zm-251-3.92c-10.9-14.5 2.37 8.47 0 0zm56.9-6.81c-4.13-25.1-8.97 29.4 0 0zm-315 4.53c-4.27-5.25 1.46 6.61 0 0zm142-2.94c-6.67-16.2-48.8-52.9-15.7-11.5 6.39 0.64 8.36 22.9 15.7 11.5zm155 0.645c-4.43-3.45 4.22 7.27 0 0zm-228-2.81c-4.32-6.18-4.7-1.04 0 0zm257-10.2c12.5-17.3-22.6 22.1 0 0zm-186 0.138c-1.63-17.4-5.51 9.2 0 0zm42.6 1.23c-10.6-23.9-47.1-54.1-47.4-50.5-21.4-13.7-6.41 11.6-3.56 10.6 1.2 4.1 27.8 36.4 7.7 4.1 15.8 11.7 30.3 39.8 43.3 35.8zm-38.7-42c-8.38-7.13 14.9 7.47 0 0zm300 41.6c-4.43-3.45 4.22 7.27 0 0zm-156-1.98c-12.9-24.6-32.2-37.6-8.67-9.1-1.11-2.25 12.2 16.6 8.67 9.1zm77.2-3c-2.64-3.82-3.18 12.8 0 0zm-261-13.4c-17.4-23.9-51.9-70.6-69.9-69.6 24 24.5 32.8 43.8 56.8 67.2 12.4 12.6 32.3 27.8 13.1 2.4zm407 13.4c-8.11-9.31 0.0175 13.3 0 0zm-464-3.7c-2.89-23.8-62.7-83.2-34.6-29.3 7.02 20.8 25.2 29 17.1 15.2-0.9 4.06 25.4 30.2 17.4 14.1zm423-0.0996c-5.86-18.4-18.2-23.4-9.04-31.9-4.3-8.81-51.3-45.4-19.4-9.45 8 12.4 12.6 31.8 19.4 38.4-9.79-14.9 16.3 14 8.97 2.98zm33.3 0.375c-4.27-5.25 1.46 6.61 0 0zm-136-1.94c6.82-9.54-9.95 9.7 0 0zm113 1.33c-7.06-4.87 1.49 4.6 0 0zm-492-4c-8.77-14.4 5.76 14.2 0 0zm6.02-0.815c8.32 9.64-26.2-91.2-28.7-44.9 3.95 22.1 16.1 40.4 23.9 41.2 0.582 1.92 8.69 14.7 4.87 3.77zm300 1.45c-7.78-5.13 4.72 6.48 0 0zm8.23-3.84c-4.66-13.8-21.8-35.3-7.38-5.95 0.71 4.4 3.18 9.12 7.38 5.95zm-14.1-4.45c-6.3-0.349 4.15 9.73 0 0zm56.5-0.762c12.7-19.2-1.39-8.52-2.3 5l0.89-0.574zm82.8-1.32c-5.45-0.3 4.35 10.8 0 0zm5.21-0.416c-4.9-4.86-1.6 8.65 0 0zm40 2.99c-4.32-6.18-4.7-1.04 0 0zm-217-5.27c-27.9-29.1-10.6-6.12 0 0zm17.7-9.92c-7.7-23.7-36.2-58.8-8.84-16.3 1.24 1.22 14.6 34.3 8.84 16.3zm-91.5 3.11c-3.11-4.58-3.84 2.54 0 0zm50.7-2.6c-5.62-4.4-3.35 2.36 0 0zm271-1.4c-3.11-4.58-3.84 2.54 0 0zm-139-1.25c-4.32-6.18-4.7-1.04 0 0zm53.3-5.59c-4.03-18.8-3.64 21.1 0 0zm-103-0.939c-6.95-0.621-7.57 8.93 0 0zm-93.3 2.52c-9.37-7.95-8.75-4.02 0 0zm139-1.32c-4.32-6.18-4.7-1.04 0 0zm-249-2.16c-3.29-4.75-1.61 4.87 0 0zm44.3-0.469c0.597-4.99-9.78 2.68 0 0zm169-1.59c-4.27-5.25 1.46 6.61 0 0zm-128-1.94c-7.06-4.87 1.49 4.6 0 0zm139-3.33c1.02-10.7-4.29 14.5 0 0zm83.6 1.1c-4.86-6.1 3.62 9.84 0 0zm89.6 1.51c-4.27-5.25 1.46 6.61 0 0zm-352 0.104c-6.02-5.65-5.5-0.591 0 0zm302-0.714c-7.06-4.87 1.49 4.6 0 0zm0.667-3.33c-9.58-7.53 4.43 7.09 0 0zm-350-1.37c-8.99-12-2.37 5.22 0 0zm14.2-1.25c-5.76-6.76-6.19 0.571 0 0zm16-0.0133c-10.2-7.73-10.9-2.94 0 0zm38.7-3.1c-31.7-23.6-2.43 1.73 0 0zm227 0.404c-9.52-18.1 0.0904 12-9.82-8.48 0.86 4.02 3.94 13.9 9.82 8.48zm58.7 1.5c-4.32-6.18-4.7-1.04 0 0zm-436-3.56c0.215-21-45.9-72.8-22.7-24.1 6.47 6.23 16.6 23.3 22.7 24.1zm110-2.6c-16.3-10.2 8.86 9.32 0 0zm324 0.228c-1.97-9.71 11.8 1.59-4.04-16.7-18.1 9.47-15.4-46.4-23.6-26.5-28.9-19.6 2.24-41-22-45.7-3.86-17.9-22-18.8-36.8-28-17.1-22.5-76.4-44.1-40.5-16.5 16.9-4.99 27.5 15.5 13.7 9.13-27.5 2.69 17.5 5.4 9.56 13.3-16.7-5.04-67.3-31.2-33.4-5.44 19.6 6.69 40.1 5.3 22.4 9.68 9.53 9.8 62.9 29 63.2 40.4-7.92 8.68 14.2 22-13.1 9.98-20-7.39-48.2-26.8-12.4-0.657 19 3.21 40.5 30.6 34.5 4.82 18.9 15.1 7.2 14.2 23.2 31.9-37.9-36.3-14 4.08 7.78 12-13.1 8.23 18.6 7 11.5 8.19zm-52.9-61.6c3.41-4.78 3.41 4.78 0 0zm3.43-11.8c-18.2-9.09-70-47.5-31.3-30.9 11.4-7.56 14.8 5.93 25.2 14.8-10.1-1.19 23.6 15.1 6.1 16.1zm-31.4-33.5c3.29-4.75 1.61 4.87 0 0zm-46.1-8.62c-5.13-7.01 17 7.29 0 0zm33.7-0.138c-13.3-8.74 17.4 7.21 0 0zm-21.7-4.57c3.29-4.75 1.61 4.87 0 0zm-14.4-19.4c-6.98-12.3 20.1 11.9 0 0zm-228 140c-19.4-12.2 2.45 5.81 0 0zm314-3.78c-3.57-5.84 3.12 13.4 0 0zm-510-0.717c-2.33 1.33 2.16 7.34 0 0zm502-1.46c-6.89-12.5-4.09 11.1 0 0zm-584 0.212c-2.29-2.29 1.15 7.45 0 0zm77.3-2.67c-2.29-2.29 1.15 7.45 0 0zm180-1.4c2.27-17.1-12.3 12.8 0 0zm66.2 1.48c-4.2-23.5-27.2-36.2-38.8-42.8-13.2-18.1-68-40.4-26.2-12.8 32.6 19.6 48.2 32.2 65 55.6zm292 1.06c-5.79-6.16-0.938 5.61 0 0zm-543-3.89c-2.33 1.33 2.16 7.34 0 0zm206 3.85c-7.16-6.68-7.76 0.314 0 0zm-124-9.78c7.79-24.3-46.4-103-20.4-42.5 3.04 7.07 21.2 60.7 20.4 42.5zm126 2.26c-19.5-13.3 14 13.9 0 0zm320-0.667c-3.71-6.2-1.75 6.86 0 0zm-320-3.26c-8.47-11.8 2.2 9.8 0 0zm203 0.592c8.03-6.96-14.6 6.72 0 0zm123 1.41c-3.19-4.55-5.4 2.55 0 0zm27.7-7.08c-8.66-5.32 3.48 14.6 0 0zm13.7 5c3.05-5.26-9.74 4.46 0 0zm-246-3c-14.8-15.1-1.88 2.9 0 0zm34.1-2.94c-24.4-19.2 9.32 14.3 0 0zm156 0.428c-7.32-7.03-5.1 11.4 0 0zm6.67 3.67c-3.56-6.75-4.95 0.79 0 0zm-169-2.86c-6.28-5.73 1.54 7.22 0 0zm140-1.53c-4.7-5.8 2.68 9.97 0 0zm-462-10.4c1.29-25-10-52.6-6.1-9.09-2.04 0.73 7.85 34.6 6.1 9.09zm216 9.57c-6.82-7.55-9.99-7.99 0 0zm37.3-0.0741c-11.6-10.9-10.6-5.75 0 0zm-101-1.28c-6.65-8.5-7.61-3.03 0 0zm27-2.74c7.03-9.56-16.7 5.04 0 0zm-236-4.46c-6.3-0.349 4.15 9.73 0 0zm521 3.66c-3.41-4.78-3.41 4.78 0 0zm-518-4.25c-2.29-2.29 1.15 7.45 0 0zm530-0.338c-3.11-4.58-3.84 2.54 0 0zm-366-7.08c-6.13-19.6-60.2-69.8-26-26.8 5.46 4.39 27.9 34.4 26 26.8zm33.9 1.67c-9.67-17.6-52.1-46.8-13.6-11 5.74 0.7 7.87 17.3 13.6 11zm103-2.37c-17.3-18-26.7-24.8 0 0zm-384-2.22c-2.53-6.71-4.14 4.84 0 0zm6.54-6.63c-8.21-28.9 1.54 24.7 0 0zm13.5 4.41c-6.31-27-20.5 6.41 0 0zm15.3-6.42c-10.3-15.8-7.17-70.2-9.02-22.3-2.54 6.26 10.1 43.7 9.02 22.3zm92.4-14.4c2.47-15.2 9.73-36.7-8.34-61.9-9.33-8.72-13.4 6.96-3.45 26.3 0.144 7.41 12.3 97 11.8 35.6zm-10.1-25.1c1.17-6.01 1.17 6.01 0 0zm309 47.5c-6.95-7.86-8.03-5.71 0 0zm-403-4.21c-3.22-9.27-3.22 9.27 0 0zm641-0.306c-6.52-0.0311 3.63 6.9 0 0zm-342-0.821c-6.95-7.86-8.03-5.71 0 0zm247-2.91c-21.4-12.1-12.9 1.63 0 0zm-21.8-3.2c-7.72-7.18-4.54 7.82 0 0zm116 1.23c-3.29-4.75-1.61 4.87 0 0zm-219-5.58c-2.47-2.72 1.34 7.8 0 0zm-421 0.995c-3.11-4.58-3.84 2.54 0 0zm464-1.95c-15.7-20.3-67.4-40.1-20.3-10.2 1.66-0.666 25.3 19.1 20.3 10.2zm163 0.547c-5.33-4.85-0.586 6.74 0 0zm-456-4.18c-5.29-22.1-22.3-45-1.81-20.8-7.9-34.4-33.7-27.6-10.4 3.44-11.9 0.478 9.08 25.5 12.2 17.4zm135-0.498c-7.06-4.87 1.49 4.6 0 0zm274-2.09c2.66-8.94-12.3 5.36 0 0zm35.6-1.55c-6.52-0.0308 3.63 6.9 0 0zm-49.3-1.47c6.1-10.2-23.4-9.75-34.2-18.3 4.86 9.82 32.9 15.1 34.2 18.3zm-64-2.23c16.1-17.6-22.9-15.9-37.2-33.5-15.6-11.8-57.1-26.9-21.8-3.56 18.2 12.1 47 25.1 59 37zm108 0.667c-5.13-4.78-3.42 4.94 0 0zm-143-5.24c18.8-20.3-12.1 8.77 0 0zm-487-7.43c-4.09-29.7-0.964 28.6 0 0zm512 7.37c2.85-4.46-9.43 4.1 0 0zm-247-1.22c-6.63-11.1-13.2 2.32 0 0zm241-0.743c-3.11-4.58-3.84 2.54 0 0zm-340-3.16c-3.96-10.4-3.89-0.103 0 0zm104-2.92c-7.24-8.4 4.19 11.5 0 0zm163 2.7c-12.8-20.4-89.2-58.7-34.7-21.6 11.2 4.96 24.4 20.1 34.7 21.6zm-147-2.06c-6.28-5.73 1.54 7.22 0 0zm56.7-0.377c-5.8 1.58-2.58 3.77 0 0zm7.3 0.254c-7.05-2.29-7.04 4.11 0 0zm45.3-5.47c-3.35-5.61-8.5 16.9 0 0zm-388-7.71c-1.94-24.4-2.67 31.6 0.298 6.63zm152 10.6c-4.27-5.25 1.46 6.61 0 0zm195-0.352c-5.8 1.58-2.58 3.77 0 0zm-68-1.59c-4.78-5.08-1.66 5.26 0 0zm-238-7.67c-2.14 1.98 2.08 10.3 0 0zm-49.3-0.583c-2.29-2.29 1.15 7.45 0 0zm63.1 0.917c-1.15-7.04-3.16 7 0 0zm486 0.345c-24.5-9.42-47.8-9.19-9.9-0.98-3.04 1.79-3.1 3.34 9.9 0.98zm-308-1.48c-20.6-25.3-8.95-4.17 0 0zm23-1.86c-15.2-23.4 4.83 12.5 0 0zm200 2.11c-16.3-8.73-66.4-35.9-49.5-37.1 1.6-7.65-43.2-19.1-47.8-18.2 7.93 19.8-77.7-25.9-59.1-17.4 0.875-7.52-33 0.637-29.2 1.89 9.97 1.9 61.3 10.4 53.9 17.6 37.1 8.33 15.9 7.73 26.8 13.8-18 8.87 36.6-16.4 44.9 6.13-30.7-10.8 6.77 9.43 10.5 9.33 3.87 6.25 32.6 25.8 49.6 23.9zm-170-71.4c8.79-1.97 1.71 2.21 0 0zm143 69c-10.6-10.8-1.09 5.28 0 0zm-363-3.1c-2.33 1.33 2.16 7.34 0 0zm304-1c-25-20.7-55.7-40.8-85.3-47.5 25.6 15.9 64.7 35.3 85.3 47.5zm-83.3 0c-10.5-4.71-0.942 3.55 0 0zm317 0.103c-10.4-2.28-0.0837 4.11 0 0zm-70.8-2.1c-16.8-7.6 8.28 7.14 0 0zm-203-1.57c13.7-11.1-8.02 0.281 0 0zm25.8-0.291c-5.14-7-2.82 3.12 0 0zm-54.7-0.688c-17.6-16.3-24.5-15.6 0 0zm188-0.0431c-3.11-4.58-3.84 2.54 0 0zm-461-8.08c-5.84 5.23-2.59 9.75 0 0zm178-1c-13-28.8-12.6-3.73 3.26 8.33zm300 7c-14.1-9.91-16.8-3.97 0 0zm18.7 0c-4.78-5.08-1.66 5.26 0 0zm-501-4.41c-1.47-7.47-3.86 12.3 0 0zm15.5-12.7c-1.3 4.78-3.32 27.2 0 0zm37.4 12.8c-2.33 1.33 2.16 7.34 0 0zm-63.6-12.4c9.54-19.4 24.6-24.4 17.1-37.3 5.77-21.8-12.5 4.23-13.2 13-5.35 25.6-22.5 38.2-8.56 29.6-7.48 20.2 5.21-3.16 4.63-5.36zm14.7-25.8c0.501-8.72 3.81 7.15 0 0zm160 36.6c-9.11-28-24-34.5-11.2-5.46-5.75-19.2 15 19.5 11.2 5.46zm37.3 2.94c-12.5-13.2-14.5-12.6 0 0zm323-0.192c-3.11-4.58-3.84 2.54 0 0zm-387-4.75c-7.17-8.41 4.6 11.1 0 0zm301 0.156c-6.86-6.17-4.32 3.47 0 0zm-335-8.49c-0.0668-23.8-25.8-60.5-13.7-15.6 0.56 25.3 7.02 13.7 4.2 13.5 3.15 1.35 14.2 19.3 9.48 2.04zm346 2.8c-5.85-6.82 2.4 10.8 0 0zm-81.2 2.36c-4.32-6.18-4.7-1.04 0 0zm112 0.0435c-6.65-8.5-7.61-3.03 0 0zm-513-12.2c-7.19 8.6-0.646 14.2 0 0zm47.5 10c-1.61-4.87-3.29 4.75 0 0zm492-2.02c-21.5-16.3 9.34 12.6 0 0zm-104-3.62c-7.12-0.498 5.35 10.5 0 0zm17.7 1.57c0.86-3.97-13.5 4.18 3 3.6l-3-3.6zm-143-2.6c-0.175-5.39-11.1 10.5 0 0zm74.6 1.04c11.9-16.1-15.5 11.5 0 0zm83.4 2.41c-12.8-13.9-21.6-9.4 0 0zm-299-6.45c-13.7-51.9-22.9-12.7 0 0zm341-0.133c2.4-3.15-10.2 2.94 0 0zm-212-2.87c-13.4-16.5-68.3-22.7-22.6-6.4 3.6-0.777 24.4 13.4 22.6 6.4zm-40-2.13c-15.4-22.7-9.55 0.469 0 0zm-153-6.59c-5.74-22.9-10.2-66.1-21.4-71.6 5.38 25.5-12.5 19.5 8.2 37.3 2.29 13.4 6.35 44.7 7.26 29-0.472 5.15 6.63 17.6 5.9 5.28zm-18.4-44.8c-3.92-11.4 3.82-2.6 0 0zm2.61-3.83c-3.68-11.9 4.86 6.81 0 0zm122 47.8c-6.24-25.2-56.5-58.5-17.3-15.9 3.36 0.662 26 37.8 17.3 15.9zm134 3.38c-5.29-4.25-7.98 6.6 0 0zm14.5-9.74c-10.4-5.15 7.27 8.22 0 0zm-115-3.43c-13.1-30.3 9.18 67.1 1.76 3.96zm229 3.62c-5.71-6.25-6.34-1.06 0 0zm54.1-0.956c-7.7-5.41-2.08 4.22 0 0zm-476-3.87c-4.6-11.5-0.467 12.6 0 0zm263 1.2c2.19-5.04-14.2 5.06 0 0zm44.7-1.24c-6.21-5.73 1.33 7.15 0 0zm-361-5.42c-3.81-2.96-2.05 14.2 0 0zm48.8 2.67c5.88-5.24 11.2-24.6 3.21-30.3-2.16 10.9-10.7 26.7-3.21 30.3zm4.77-30.1c0.858-5.14 1.35 6.07 0 0zm-62.8 28.1c-4.67 1.81-1.09 7.45 0 0zm173-2.63c-4.25-12.8-10.7-36.6-23.9-70.8-9.81 10.2 4.82 43.3 12.4 58.1-7.47 0.929 17.4 28.4 11.4 12.7zm85.4 4.65c-3.37-2.44-5.31 4.3 0 0zm42-2.85c-7.66-6.48-7.73 12.2 0 0zm216 3.24c1.62-18-33.5-3.09 0.222 0.764l1.22-0.245zm-23-1.75c-7.06-4.87 1.49 4.6 0 0zm-117-4.77c-2.08-8.66-1.55 10.7 0 0zm120 0.995c-10.5-25.2 0.41 12.3 0 0zm-244-2.38c-13-13.1-38.2-22.6-8.91-4.66 0.189-0.802 17.5 14.6 8.91 4.66zm99.5 0.904c-6.21-5.73 1.33 7.15 0 0zm-72.9-0.863c-18.8-18.2 22.4 1.87 17.4-9.87-20.9-1.36-36.6-0.817-22.3 10.8zm210-3.6c-10.4-11.9 8.86 13.2 0 0zm-154 1.92c-9.66-14.7-20.1-1.66 0 0zm-290-9.55c10.2-60.9-9.18 8.71-2.3 4.81l0.235-0.81 2.07-4zm217 3.3c-7.78-5.13 4.72 6.48 0 0zm41.8 0.0323c-3.16-7-1.15 7.04 0 0zm3.52-0.667c-3.29-4.75-1.61 4.87 0 0zm-205-0.588c-3.11-4.58-3.84 2.54 0 0zm181-0.745c-9.77-5.59 3.31 5.25 0 0zm55.1 0.475c-1.15-9.24-15.9-0.433 0 0zm-28.4-1.81c-9.52-13.8-24-3.82 0 0zm5.33 0.745c-3.11-4.58-3.84 2.54 0 0zm-54.1-4.08c-9.28-10.4 6.81 11.3 0 0zm26.6 1c-19.3-13.7-29-13.1-11.6-0.964 2.12 1.27 16.2 5.44 11.6 0.964zm-19.1-4.33c-3.31-5.25 9.77 5.59 0 0zm52 5.33c5.98 6.51 3.24 3.19 0 0zm-220-1.33c-1.61-4.87-3.29 4.75 0 0zm193-0.667c-14.9-7.47 8.38 7.13 0 0zm72.5-0.0692c-1.32-4.9-2.74 6.79 0 0zm78.1 0.694c-11.6-1.69-6.26 3.89 0 0zm-423-9.5c3.5-25.2-9.26 27.3 0 0zm264 5.7c-3.27-7.68 8.71-7.75-3.26-8.77-14.3-13-4.43 11.4 3.26 8.77zm34.7 0.582c-3.11-4.58-3.84 2.54 0 0zm9.33 0.0768c-5.19-3.77-4.96 2.11 0 0zm67.9-5.16c-5.28-3.15-1.01 12 0 0zm-135 3.01c-9.33-8.76-2.83 2.21 0 0zm-213-1.34c-1.61-4.87-3.29 4.75 0 0zm82.8-1c-0.967-22.6-17.1-36.2-8.92-4.93-1.94-23.2 6.14 11.3 8.92 4.93zm283-0.333c-5.13-4.78-3.42 4.94 0 0zm10.9-1.06c-11.1-3.9-11.3 6.8 0 0zm12.4 1.06c-24-6.26 2.63 5.74 0 0zm-354-4.97c-2.21 1.71 1.97 8.79 0 0zm177 1.73c-20.7-13.5 9.33 11.3 0 0zm185 1.25c-1.15-7.04-3.16 7 0 0zm-221-8.42c-19.4-19.4 8.65 0.4 4.09 5.46zm16.2 5.77c-6.9-8.39-2.6 6.17 0 0zm59.5 1.47c-5.19-3.77-4.96 2.11 0 0zm28.3-3.71c-24.4-11.7-38.9-6.57-19-1.66-34.9-6.09 56.5 12.3 19 1.66zm-63.6-2.1c-10.4-9.89 25.8 5.51 8.54-4.36-12.3-1.73-36.6-25.5-50.6-29.3 3.02 9.68 38.8 36.5 42.1 33.7zm-6.12-5.01c-2.14-7.44 8.33 7.79 0 0zm44.7 8.67c-7.06-4.87 1.49 4.6 0 0zm67.3-0.745c-4.14-4.84-2.53 6.71 0 0zm-307-3.59c-2.14-11.5-1.62 13.8 0 0zm13.2-4.34c0.412-13.8 6.6 9.57 1.02-16.1 4.48-20.1-15.9-13.2-4.61 13.4-0.54 4.68 4.55 21.7 3.59 2.67zm279 6.74c-25.9-7.98-21.7 0.936 0 0zm48 0.114c-12.9-3.76-11.7 2.1 0 0zm-119-1.66c-4.91-1.51-2.45 2.32 0 0zm-41.4-2.97c-19.8-10.3 9.06 7.95 0 0zm-172-3.86c-2.21 1.71 1.97 8.79 0 0zm215 2.26c-20.3-7.11 10.3 10.3 0 0zm111 1.16c-6.96-1.4-4.74 3.91 0 0zm-142-0.285c-4.32-6.18-4.7-1.04 0 0zm106-0.83c-7.7-5.41-2.08 4.22 0 0zm16-3.46c-18.7-7.92-80.6-14.8-29.6-2.18 3.64 0.814 53.7 9.72 29.6 2.18zm-33.3-5.86c3.37-2.44 5.31 4.3 0 0zm-151 5.93c-4.27-5.25 1.46 6.61 0 0zm129-3.11c-11.9-11.7-4.03 4.53 0 0zm8.54 3.03c-4.91-1.51-2.45 2.32 0 0zm53.7-1.49c-43.5-21-16.1-1.1 0 0zm-78.3 0.0808c-7.34-2.16-1.33 2.33 0 0zm-261-7.13c13-30.6-8.42-4.63 0 0zm3.79 4.62c-4.27-5.25 1.46 6.61 0 0zm167-0.942c-8.65-16.8-34.2-35.5-55.6-54.6 12.7 18.7 43.4 48.3 55.6 54.6zm-15-13.9c-7.37-13.1 9.47 10.5 0 0zm103 14c-18.1-3.92-76.7-11.5-24.4 0.642 8.07 0.747 16.4 0.649 24.4-0.642zm-222-3.28c-5.19-6.13 2.05 9.24 0 0zm155 3.03c-6.82-7.55-9.99-7.99 0 0zm-210-10.9c-1.74-10.5-3.11 24.4 0 0zm226 4.12c-5.23-6.18-5.79 6.78 0 0zm52 0.542c-11.7-4.72 2.32 4.54 0 0zm4.46-0.724c-4.27-5.25 1.46 6.61 0 0zm40 0.0575c-1.96-7.1-6.07 6.34 0 0zm-159-4.58c-12.4-21.1 6.88 19.1 0 0zm181 3.1c-4.91-1.51-2.45 2.32 0 0zm-232-5.19c7.92 2.06-10.8-46-6.58-9.13 3.55 19.2 8.36 6.04 5.9 7.6zm76.2-5.63c-16.8-23.9-25.4-15.5-1.45 2.4 13.4 14.3 9.4 3.68 1.45-2.4zm97 7.72c-1.16-6.28-9.82 6 0 0zm24.4 0.436c-4.91-1.51-2.45 2.32 0 0zm-33.8-2.81c-11-5.32 4.85 6.1 0 0zm-35.8-1.71c-7.06-4.87 1.49 4.6 0 0zm-155-10.2c-4.41-22.9 1.47 22.4 0 0zm10.8-4.11c-15.8-66.7-4.27 28.1 0 0zm-74.1 7.08c-3.11-4.58-3.84 2.54 0 0zm66.5-7.75c-1.79-17.9-0.978 23.5 0 0zm27 0.0245c-3.92-1.63 4.19 9.24 0 0zm134 2.46c-5.19-3.77-4.96 2.11 0 0zm-198-3.16c2.86-22.9-4.54-11.4 0 0zm170-3.74c-11.9-11.2-16.5-1.51 0 0zm-228-2.56c-1.3-9.59-2.47 11.3 0 0zm17.8-15c-8.89 15.9-7.47 29.3 0 0zm59.2 11.3c-0.78-6.72 2.19-4.65-12.3-20.3 4.58 9.74 6.11 25.7 12.3 20.3zm123 6.27c-16.9-32.9-38.7-53.9-58.8-83.3 13 36.6 35.3 46 44.1 68.7 21.1 16.2-14.4-0.419 14.7 14.6zm-135-3.52c-2.29-2.29 1.15 7.45 0 0zm2.64-2.75c-2.33 1.33 2.16 7.34 0 0zm116-2.33c-14.4-17.7 12.1 20.1 0 0zm17.7 2.73c-6.87-7.84 4.89 8.77 0 0zm-22.4 0.0557c-0.422-20.6-48-53.6-19-16.2 5.47 3.44 12.9 17.1 19 16.2zm-45.1-10.4c-11.3-32.5-36.4-31.6-6.86-3.03 2.13 0.373 13.9 20.2 6.86 3.03zm31.8 7.13c-4.32-6.18-4.7-1.04 0 0zm41.8-1.78c-14-5.91 5.53 6.68 0 0zm-48.8-1.65c-6.87-7.84 4.89 8.77 0 0zm78.9-2.73c-5.2-4.87-5.2 4.87 0 0zm-136-9.92c-11.9-24.1 8.01 27.3 0 0zm115 5.12c-14.2-13-57-40.3-27.8-15.5 16.6 3.74 21.2 21.2 27.8 15.5zm-30.6-17.9c3.84-2.54 3.11 4.58 0 0zm-128 9.93c2.97-28.7-8.19-2.65 0.189 10.1zm32.5 2.48c-9.76-60.2-10.8 22.8 0 0zm-86.9 2.67c11.9-30.3-8.12 8.52 0 0zm18.2-1.73c0.936-12.5-5.78 17.9 0 0zm220 4.06c-20-3.83 10.2 4.08 0 0zm-18-4.07c-29-11.8 14.7 10.8 0 0zm-31.3 0.787c-6.02-5.65-5.5-0.591 0 0zm49.3-0.95c-29.9-14.8-6.67 1.92 0 0zm-163-8.1c-2.33 1.33 2.16 7.34 0 0zm30.4-4.67c-0.378-16.9-31.8-44.2-10.9-12 3.55-1.55 13.7 28.5 10.9 12zm38.8-0.718c-1.43-19.1-45.6-50.5-11.9-32-9.07-39.9-33.7-8.36-23.1-9.46 7.36-11.6 20.8 63.6 13.7 19.4-3.21-6.12 19.1 31.2 21.3 22.1zm18.5 1.81c0.0104-6.18-3.59 4.36 0 0zm-154-9.24c-6.26 4.56-2.46 9.91 0 0zm123 6.49c-3.29-4.75-1.61 4.87 0 0zm-88.2-12.7c-2.79-15-2.65 30.8 0 0zm152 10.8c-4.32-6.18-4.7-1.04 0 0zm-125-14.6c-7.17 10.4 7.39 17.3 0 0zm-50.8 0.453c-1.39-10.3-6.56 24.2 0 0zm164 5.67c-24.7-32.4-14.5-9.58 0 0zm7.95 3.16c-4.32-6.18-4.7-1.04 0 0zm-22.7-6.16c-1.53-17.1-15.8-35.1-3.49-3.83-1.79-0.9 5.88 13.6 3.49 3.83zm-116-8.97c-5.43-1.62 4.29 18 0 0zm29 3.3c-10.2-30.4-2.59 9.86 0 0zm106 3.15c-6.4-13.4-16.8-22.5-4.32-3.31l3.75 4.49zm-177-8.82c-8.84 4.61 0.092 10.1 0 0zm32 0c-9.91-6.27 0.987 18.4 0 0zm132-6.88c-7.15-10.7 5.63 14.9 0 0zm-107 0.273c-8.59-8.75 2.5 10 0 0zm6.91-2.39c-3.45-37.1-10.2 6.04 0 0zm18.9 0.794c-7.82-26.2-12.3 4.18 0 0zm-37.2-5.93c-4.27-8.81 2.77 13 0 0zm42.4-8.12c-45.9-57.6-0.604 25 0 0zm65.5 3.6c-7.61-5.51 4.49 8.62 0 0zm-147-2.16c-4.63-2.3-2.2 6.22 0 0zm86.4-0.324c-10.7-10.8-6.84-1.79 0 0zm-39.8-6.77c-3.11-4.58-3.84 2.54 0 0zm45.7-5.46c-10-14.7-32.4-26.3-20.3-27-23.6-15.5 13.9 43.8 20.3 27zm-27-24.6c2.38-7.61 2.29 7.32 0 0zm78.8 26.3c-4.43-3.45 4.22 7.27 0 0zm-9.46-0.904c-8.45-12.3 3.51 9.56 0 0zm-102-4.32c-2.29-2.29 1.15 7.45 0 0zm22.4-1.08c-1.61-4.87-3.29 4.75 0 0zm-69.8-7.57c-4.86-6.1 3.62 9.84 0 0zm151-1.47c-6.76-6.06 6.55 9.97 0 0zm-132-4.63c-10.5-30.7-1.04-23.9-27.7-44.1 11.2 13.9 23.7 46.8 2.61 11.6-18.8-16.7 21.4 46 17.4 19.8 8.81-0.773 4.83 21.5 7.68 12.7zm-21.3-7.13c-11.7-18.7 9.38 23.8 0 0zm154 2.17c-8.24-34.4-8.57 15.8 0 0zm-161-0.706c-6.75-10.1-10.1 5.87 0 0zm152-0.0575c-4.27-5.25 1.46 6.61 0 0zm-3.13 0.221c-4.32-6.18-4.7-1.04 0 0zm-40-6.83c-5.6-10.7-19.6 7.31 0 0zm29.3-2c-7.23-9.9 0.964 9.95 0 0zm-144-4.65c-8.75-15.2 6.73 16.1 0 0zm40.1 2.59c-4.27-5.25 1.46 6.61 0 0zm-37.8-5.94c-16.5-19.1 13.4 18.9 0 0zm98 1.34c-11.9-10.2 7.14 11.3 0 0zm9.99 1.9c-3.75-8.82-5.44 1.35 0 0zm-17.3-1.76c-5.14-7-2.82 3.12 0 0zm-60.5-14.6c-7.7-4.64 6.22 10.6 0 0zm-45.4-3.92c-13.9-22.4 4.71 12.9 0 0zm38.5-0.987c-7.63-7.47-7.47-29.8 6.54-14.6-7.49-9.79 18.3-1.61-3.31-18.2-16.8 0.456-41.8-4.29-15.3 12.4 1.65 13.4-26.2-4.55 1.49 16.2-3.16 3.47 21.1 13.4 10.5 4.25zm-11.3-12.7c5.21-4.35 5.34 2.37 0 0zm-1.91-18.2c-1.67-5.84 4.63 6.23 0 0zm7.25-0.47c3.84-2.54 3.11 4.58 0 0zm17.5 31.7c-4.43-3.45 4.22 7.27 0 0zm-3.47-7.54c-9.37-10.2 1.28 10.5 0 0zm-34.5-2.39c-23.2-15.6 12.8 15.9 0 0zm40.9 0.153c-10-5.23 4.75 9.52 0 0zm2.32-5.87c-3.29-4.75-1.61 4.87 0 0zm52-5.19c-4.08-6.84-3.65 4.05 0 0zm-110-1.48c-4.78-5.08-1.66 5.26 0 0zm-12.5-6.11c-10.1-7.44 9.19 12.5 0 0zm25.4-0.846c-5.87-1.14 4.11 6.04 0 0zm-30-5.04c18.9-5.5-30.2-16.9 0 0zm-3.61 0.809c-5.21-4.35-5.34 2.37 0 0zm30.8-3.37c-10.4-2.28-0.0838 4.11 0 0zm18.8-1.7c-7.7-3.11 3.76 6.92 0 0zm91.5 1.45c-11.4-4.35-0.404 4.56 0 0zm-69.1-0.425c-3.81-7.66-15.6-4.53 0 0zm-86.1-3.24c-14.2-6.8 7.34 7.55 0 0zm5.68-0.442c-2.47-2.72 1.34 7.8 0 0zm83.8 1.58c-4.78-5.08-1.66 5.26 0 0zm-10-5.33c-3.29-4.75-1.61 4.87 0 0zm-128-4.19c10.8-9.3-23.2 11.2 0 0zm135 2.19c-9.54-6.4 3.19 6.67 0 0zm-20 0.0787c-3.11-4.58-3.84 2.54 0 0zm-50.5-5.24c-14-9.59-0.179 8.21 0 0zm135 2.63c-5.62-4.4-3.35 2.36 0 0zm-199-3.05c12.1-5.76 1.44 4.12-5.71 2.09zm45.8-0.426c-8.49-15.5-40.9-10.1-16.4 0.0486 5.28 0.201 11.3 2.58 16.4-0.0486zm-29.3-2.64c-14.2-2.83-7.77 4.62 0 0zm174-2.02c-8.65-7.66 3.53 7.35 0 0zm-84.6-4.59c-28-26.3 9.08 17.1 0 0zm-27-1.63c-10-16.5-12.5 5.34 0 0zm-11.9-2.34c0.0424-13.9-5.62 7.46 0 0zm12.4-2.17c-4.27-5.25 1.46 6.61 0 0zm73.8 1.25c-4.91-1.51-2.45 2.32 0 0zm-111-3.82c8.52-11.1-16.3 9.62 0 0zm58-2.6c11.5-24-8.89 8.85 0 0zm22.7-3.44c-3.22-9.27-3.22 9.27 0 0zm15.4-9.24c-10.8-10.5-0.199 5.62 0 0zm-81.1-3.12c-1.14-8.91-4.25 12.8 0 0zm63.8-1.72c38.6-3.53-37.4 1.25 0 0zm-20.2-2.63c6.1-7.2-11.7 6.53 0 0zm380 785c-5.26-13.9 8.36 7.99 0 0zm36.2-2.64c-4.46-6.37 8.11 7.86 0 0zm10.3-1.04c-7.4-16.3 9.48 10.9 0 0zm-54.8 0.618c-1.33-7.15 6.21 5.73 0 0zm50.2-2.38c-5.76-12 7.25 8.01 0 0zm-48.9-1.73c-6.31-8.7 10.2 8.91 0 0zm-36.3-9.56c-9.31-17.7 10.4 10.3 0 0zm79.8-2.33c3.84-2.54 3.11 4.58 0 0zm149-4.22c-14.2-31.1 16.3 6.81 0 0zm-287-2.7c-7.95-9.38 9.88 9.71 0 0zm28.2-1.71c-5.02-7.1 9.31 7.22 0 0zm109-39.4c3.84-2.54 3.11 4.58 0 0zm347-31.3c2.46-53.1 2.44 54.7-1e-4 0zm-347 16.4c-7.95-9.38 9.88 9.71 0 0zm205-3.82c-19.9-17.7 1.88-6.68 0 0zm126-11.2c-6.51-31 9.61-6.41 2.81 9.57zm7.42 8.29c-5.8-20.7 5.17 5.73 0 0zm4.51-4.22c-7.24-9.44-12.6-29.7-1.84-38.8-7.12 15.6 8.94 32.2 1.84 38.8zm1.3-34.8c0.858-5.14 1.35 6.07 0 0zm-17.1-6.22c-12.4-21.4 14.3 8.64 0 0zm25.1-15.1c0.858-5.14 1.35 6.07 0 0zm-0.466-4.03c-12.9-35 2.05-29.4 0 0zm-614-17.9c-6.7-19.1-25.6-98.9 0.837-44.3 14.3 28 10.4 31.8 4.91 46.2l-3.35 1.87zm75.1-10.8c-1.33-7.15 6.21 5.73 0 0zm531-2.19c-1.67-5.84 4.63 6.23 0 0zm-10.5-22.1c-19.9-27.1 17.9 19.2 0 0zm-587-0.821c-1.13-7.82-4.06-3.4 0 3.9e-4zm576-5.6c-1.63-6.69 4.34 5.08 0 0zm-675-3.24c1.45-6.33 0.78 8.03 0 0zm667-29.8c-5.76-12 7.25 8.01 0 0zm-7.77-5.87c-22.1-32 13-8.47 0 0zm-676-3.13c-0.022-22.8-27.4-28.1-10.5-41.7 6.75 4.04 26.8 11.7 11.6 15.7-7.57 4.33 15.7 20.4-1.12 26.1zm17.3-8.34c-2.39-13.2 5.96 8.65 0 0zm4.76-1.84c-1.3-18.5 6.22 12.6 0 0zm-29.9-4.36c1.27-8.71 0.822 10.4 0 0zm33.7 1.06c-1.67-5.84 4.63 6.23 0 0zm45.9-10.4c3.07-16.2 3.07 16.2 0 0zm-61.2-2.78c0.858-5.14 1.35 6.07 0 0zm651-6.04c-16.4-22.8 19.1 21.8 0 0zm-641 1.26c7.15-13.7 0.692 12.5 0 0zm17.9-2.44c1.07-8.34 1.07 8.34 0 0zm-10.9-0.0389c-7.34-17.5-9.37 12.1-7.65-19.6-18 16.5-7.78-22.2-3.97-5.02-0.749-17.1 14.5 11.4 19.5 24 0.248-6.96-6.53 3-7.91 0.628zm-49.3-11.4c0.858-5.14 1.35 6.07 0 0zm-4-2.67c0.858-5.14 1.35 6.07 0 0zm6.67-1.33c0.858-5.14 1.35 6.07 0 0zm85.3-6.67c0.858-5.14 1.35 6.07 0 0zm-1.33-5.33c0.858-5.14 1.35 6.07 0 0zm-56.3-3.66c-0.528-8.78 2.62 7.94 0 0zm1.57-7.57c6.34-9.57-3.27 9.46 0 0zm600 1.33c-3.82-4.82 7.41 4.37 0 0zm-605-6.11c0.858-5.14 1.35 6.07 0 0zm4.56-0.556c3.29-4.75 1.61 4.87 0 0zm575-16.8c2.23-4.61 5.75 7.23 0 0zm-14.7-41.9c3.84-2.54 3.11 4.58 0 0zm-547-33.8c9.79-29.4-4.1 22.8 0 0zm457-23c-4.28-14.1 6.65 11.1 0 0zm-10.8-7.04c7.05-2.29 7.04 4.11 0 0zm-206-83.7c-5.87-6.17 12.6 5.91 0 0zm-24-4.41c0.782-7.2 7.61 4.51 0 0zm-65.4-28c-8.91-14.1 13.3 13.3 0 0zm-11.2-32.1c-8.79-15.6 11.7 13.4 0 0zm4.13-5.96c-9.48-15.8 11.5 15 0 0zm-16.9-0.18c-1.67-5.84 4.63 6.23 0 0zm-5.18-6.45c-4.97-15.4 9.52 14.5 0 0zm11.8 2.06c-4.92-9.65 8.86 9.79 0 0zm2.79-2c-4.38-11.8 8.14 12 0 0zm-9.32-1.2c-7.81-19.7 8.93 8.96 0 0zm14.4-0.127c-13-14.2 7.4 0.148 0 0zm-11.3-6.91c-7.69-17.9 12.9 4.92 0 0zm-4.4-2.76c-15.8-5.91-27.3-40.5-4.62-8.1 0.0427-2.38 13.8 12.2 4.62 8.1zm3.91-11.4c-15.8-10.6-30.4-51.6-8.69-14.9 11.7 4.13-47.9-54.3-5.46-21-11.6-19.8-21.4-27.3-37.3-42.3-5.41-5.75-21.7-14.8-32.6-32.6-11.9-18.8-71.1-46.4-108-49.2-19.2 2.18-18.1-3.16-34.2 8.08-5.47-5.18 3.83-5.28 11.9-11.2 16.4 1.48 21.2-15.7 55.6-9.41 21.2-11.3 56.2 30.8 69 29.3-14.5-17.2 38.2 30 32 16.7 21.3 11.2 39.9 73.1 38.6 64.7-10.3-2.13 7.97 24.4 0.934 3.28 15.8 20 12.9 31.5 11.9 34.8-4.84-5.17 11.6 12.3 1.16 7.06-1.39 5.95 21.7 40.6 5.14 16.7zm-11.4-28.2c-3.11-4.58-3.84 2.54 0 0zm4.17-5.1c-4.43-3.45 4.22 7.27 0 0zm-22.4-39c-4.27-5.25 1.46 6.61 0 0zm-3.13-15.8c-4.32-6.18-4.7-1.04 0 0zm-61.3-40.1c-16.1-13.9-7.08 2.87 0 0zm-1.33-9.2c-4.32-6.18-4.7-1.04 0 0zm-4-6.69c-5.62-4.4-3.35 2.36 0 0zm-107-21.6c-6.98 1.18-7.3 6.41 0 0zm29.8-1.24c-1.15-7.04-3.16 7 0 0zm42.2 1.49c-6.83-4.11-9.26 2.24 0 0zm-56.4-1.63c-4.91-1.51-2.45 2.32 0 0zm9.96-0.794c-8.35-3.17 0.175 6.01 0 0zm172 163c-14.1-17.2 9.83 5.98 0 0zm-114-0.342c5.13-4.78 3.42 4.94 0 0zm45.3-5.41c3.84-2.54 3.11 4.58 0 0zm52-10.3c-10.2-15.3 17.2 17 0 0zm-122-5.85c2.94-12.1 1.42 10.5 0 0zm-74.5-19.4c-4.11-6.04 5.87 1.14 0 0zm80.4-0.444c3.41-4.78 3.41 4.78 0 0zm15.6-2.59c0.0735-11.4 5.97 8.76-6e-4 0zm116-2.74c-8.91-14.1 13.3 13.3 0 0zm-31.3-1.41c3.84-2.54 3.11 4.58 0 0zm17.9-20c-1.63-6.69 4.34 5.08 0 0zm-233-10.1c-4.11-6.04 5.87 1.14 0 0zm159-38.5c-7.52-6.55 12.7 5.01 0 0zm-62.7-3.19c2.34-7.01 2.07 4.9 0 0zm-53.3-28.7c8.33-7.79-2.14 7.44 0 0zm101-4.67c-3.82-4.82 7.41 4.37 0 0z" clip-path="url(#clipPath230)" stroke-width="1.33"/>
</svg>
